<?xml version="1.0" encoding="utf-8"?>
<!-- Generator: Adobe Illustrator 27.5.0, SVG Export Plug-In . SVG Version: 6.00 Build 0)  -->
<svg version="1.1" xmlns="http://www.w3.org/2000/svg" xmlns:xlink="http://www.w3.org/1999/xlink" x="0px" y="0px"
	 viewBox="0 0 500 500" style="enable-background:new 0 0 500 500;" xml:space="preserve">
<g id="BACKGROUND">
	<rect style="fill:#8BD9FE;" width="500" height="500"/>
</g>
<g id="OBJECTS">
	<g>
		<path style="fill:#5D2761;" d="M205.825,456.993c-2.661,0-4.827-2.165-4.827-4.826V84.399c0-2.661,2.166-4.826,4.827-4.826
			h171.704c2.661,0,4.827,2.166,4.827,4.826v367.768c0,2.661-2.166,4.826-4.827,4.826H205.825z"/>
		<path style="fill:#00B8C2;" d="M382.352,63.893c-0.57-0.07-1.14-0.11-1.73-0.11h-177.89c-7.73,0-14,6.27-14,14v381
			c0,7.73,6.27,14,14,14h177.89c7.73,0,14-6.27,14-14v-381C394.622,70.643,389.272,64.743,382.352,63.893z M382.352,452.163
			c0,2.66-2.16,4.83-4.82,4.83h-171.71c-2.66,0-4.82-2.17-4.82-4.83v-42.64h181.35V452.163z M382.352,400.523h-181.35v-59.81h181.35
			V400.523z M382.352,331.713h-181.35v-59.81h181.35V331.713z M382.352,262.903h-181.35v-59.81h181.35V262.903z M382.352,194.093
			h-181.35v-59.81h181.35V194.093z M382.352,125.283h-181.35v-40.88c0-2.66,2.16-4.83,4.82-4.83h171.71c2.66,0,4.82,2.17,4.82,4.83
			V125.283z"/>
		<path style="opacity:0.4;fill:#FFFFFF;" d="M382.352,63.893c0,0-150.92-0.11-169.06,3.21c-18.14,3.33-18.14,19.1-18.14,19.1
			l-6.42,316.59V77.783c0-7.73,6.27-14,14-14h177.89C381.212,63.783,381.782,63.823,382.352,63.893z"/>
		<path style="opacity:0.4;fill:#005C80;" d="M382.352,63.893c-0.57-0.07-1.14-0.11-1.73-0.11h-15.29
			c0.12,4.37,0.19,9.67,0.15,15.79h12.05c2.66,0,4.82,2.17,4.82,4.83v40.88h-18.98c-0.25,2.93-0.53,5.94-0.84,9h19.82v59.81h-28.8
			c-0.6,2.98-1.23,5.98-1.9,9h30.7v59.81h-47.46c-1.07,3.08-2.2,6.08-3.37,9h50.83v59.81h-89.71c-3.25,3.21-6.55,6.2-9.9,9h99.61
			v59.81h-181.35v-24.9c-4.68,0.46-8.82,0.58-12.27,0.45v82.71c0,7.73,6.27,14,14,14h177.89c7.73,0,14-6.27,14-14v-381
			C394.622,70.643,389.272,64.743,382.352,63.893z M382.352,452.163c0,2.66-2.16,4.83-4.82,4.83h-171.71
			c-2.66,0-4.82-2.17-4.82-4.83v-42.64h181.35V452.163z"/>
	</g>
	<g>
		<path style="fill:#FFFFFF;" d="M254.528,162.713v30.89c0,0.92-0.75,1.68-1.68,1.68h-47.9c-0.94,0-1.68-0.76-1.68-1.68v-30.89
			c0-0.92,0.74-1.68,1.68-1.68h47.9C253.778,161.033,254.528,161.793,254.528,162.713z"/>
		<path style="fill:#2D5DC2;" d="M236.787,161.033c-3.051,2.06-5.766,5.43-6.354,10.926c-1.168,10.934-0.882,17.953-5.556,23.324
			h-19.933c-0.933,0-1.681-0.756-1.681-1.681v-30.888c0-0.925,0.748-1.681,1.681-1.681H236.787z"/>
		<path style="opacity:0.4;fill:#FFFFFF;" d="M204.263,189.348c0,0,0-24.554,0-26.127s0.543-1.34,2.717-1.34
			c2.173,0,43.938,0,43.938,0s-38.716-0.575-42.996,2.733C205.438,166.534,204.263,189.348,204.263,189.348z"/>
		<path style="fill:#FFFFFF;" d="M228.08,166.746c0,1.178-0.955,2.133-2.133,2.133h-18.025c-1.178,0-2.133-0.955-2.133-2.133l0,0
			c0-1.178,0.955-2.133,2.133-2.133h18.025C227.125,164.613,228.08,165.568,228.08,166.746L228.08,166.746z"/>
		<path style="opacity:0.4;fill:#00047D;" d="M254.528,162.779v30.89c0,0.921-0.75,1.68-1.68,1.68h-47.9
			c-0.94,0-1.68-0.76-1.68-1.68v-3.91c8.38,2.88,47.65-5.15,47.65-5.15v-23.51h1.93
			C253.778,161.099,254.528,161.859,254.528,162.779z"/>
	</g>
	<g>
		<path style="fill:#FFFFFF;" d="M310.281,162.713v30.89c0,0.92-0.75,1.68-1.68,1.68h-47.9c-0.94,0-1.68-0.76-1.68-1.68v-30.89
			c0-0.92,0.74-1.68,1.68-1.68h47.9C309.531,161.033,310.281,161.793,310.281,162.713z"/>
		<path style="fill:#2D5DC2;" d="M292.54,161.033c-3.051,2.06-5.766,5.43-6.354,10.926c-1.168,10.934-0.882,17.953-5.556,23.324
			h-19.933c-0.933,0-1.681-0.756-1.681-1.681v-30.888c0-0.925,0.748-1.681,1.681-1.681H292.54z"/>
		<path style="opacity:0.4;fill:#FFFFFF;" d="M260.017,189.348c0,0,0-24.554,0-26.127s0.543-1.34,2.717-1.34s43.938,0,43.938,0
			s-38.716-0.575-42.996,2.733C261.191,166.534,260.017,189.348,260.017,189.348z"/>
		<path style="fill:#FFFFFF;" d="M283.833,166.746c0,1.178-0.955,2.133-2.133,2.133h-18.025c-1.178,0-2.133-0.955-2.133-2.133l0,0
			c0-1.178,0.955-2.133,2.133-2.133H281.7C282.878,164.613,283.833,165.568,283.833,166.746L283.833,166.746z"/>
		<path style="opacity:0.4;fill:#00047D;" d="M310.281,162.779v30.89c0,0.921-0.75,1.68-1.68,1.68h-47.9
			c-0.94,0-1.68-0.76-1.68-1.68v-3.91c8.38,2.88,47.65-5.15,47.65-5.15v-23.51h1.93
			C309.531,161.099,310.281,161.859,310.281,162.779z"/>
	</g>
	<g>
		<path style="fill:#FFFFFF;" d="M366.035,162.713v30.89c0,0.92-0.75,1.68-1.68,1.68h-47.9c-0.94,0-1.68-0.76-1.68-1.68v-30.89
			c0-0.92,0.74-1.68,1.68-1.68h47.9C365.285,161.033,366.035,161.793,366.035,162.713z"/>
		<path style="fill:#2D5DC2;" d="M348.293,161.033c-3.051,2.06-5.766,5.43-6.354,10.926c-1.168,10.934-0.882,17.953-5.556,23.324
			h-19.933c-0.933,0-1.681-0.756-1.681-1.681v-30.888c0-0.925,0.748-1.681,1.681-1.681H348.293z"/>
		<path style="opacity:0.4;fill:#FFFFFF;" d="M315.77,189.348c0,0,0-24.554,0-26.127s0.544-1.34,2.717-1.34
			c2.173,0,43.938,0,43.938,0s-38.716-0.575-42.996,2.733C316.944,166.534,315.77,189.348,315.77,189.348z"/>
		<path style="fill:#FFFFFF;" d="M339.586,166.746c0,1.178-0.955,2.133-2.133,2.133h-18.025c-1.178,0-2.133-0.955-2.133-2.133l0,0
			c0-1.178,0.955-2.133,2.133-2.133h18.025C338.631,164.613,339.586,165.568,339.586,166.746L339.586,166.746z"/>
		<path style="opacity:0.4;fill:#00047D;" d="M366.035,162.779v30.89c0,0.921-0.75,1.68-1.68,1.68h-47.9
			c-0.94,0-1.68-0.76-1.68-1.68v-3.91c8.38,2.88,47.65-5.15,47.65-5.15v-23.51h1.93
			C365.285,161.099,366.035,161.859,366.035,162.779z"/>
	</g>
	<g>
		<path style="fill:#6D7EE3;" d="M327.928,98.006c-0.009,0.197-0.018,0.394-0.054,0.591c-0.358,2.769-2.76,4.884-5.627,4.821
			c-3.065-0.08-5.485-2.617-5.413-5.682c0.054-1.99,1.147-3.71,2.743-4.642v-5.413c0-0.824,0.358-1.559,0.923-2.07
			c0.493-0.457,1.156-0.735,1.882-0.735c1.55,0,2.796,1.254,2.796,2.805v5.404C326.862,94.072,327.973,95.918,327.928,98.006z"/>
		<path style="opacity:0.2;fill:#0E1859;" d="M327.928,98.006c-0.009,0.197-0.018,0.394-0.054,0.591h-5.493
			c0,0,2.859-1.738,2.231-3.164c-0.627-1.434-1.739-2.303-1.739-2.303s0.072-2.222,0-4.311c-0.044-1.308-1.066-2.751-2.375-3.208
			c0.493-0.457,1.156-0.735,1.882-0.735c1.55,0,2.796,1.254,2.796,2.805v5.404C326.862,94.072,327.973,95.918,327.928,98.006z"/>
		<path style="fill:#AFECF0;" d="M329.72,104.593v21.284c0,0.986-0.806,1.792-1.792,1.792h-11.095c-0.986,0-1.792-0.807-1.792-1.792
			v-21.284c0-0.287,0.072-0.546,0.188-0.789c0.287-0.591,0.905-1.003,1.604-1.003h11.095
			C328.914,102.801,329.72,103.607,329.72,104.593z"/>
		<path style="fill:#2B8DD9;" d="M330.724,98.651v2.357c0,0.815-0.546,1.515-1.309,1.721c-0.152,0.045-0.313,0.072-0.484,0.072
			H315.83c-0.17,0-0.332-0.027-0.484-0.072c-0.762-0.206-1.309-0.905-1.309-1.721v-2.357c0-0.815,0.546-1.514,1.309-1.72
			c0.152-0.046,0.314-0.072,0.484-0.072h13.102c0.171,0,0.332,0.026,0.484,0.072C330.178,97.137,330.724,97.836,330.724,98.651z"/>
		<g>
			<path style="opacity:0.5;fill:#0E1859;" d="M316.789,96.859v5.941h-0.959c-0.17,0-0.332-0.027-0.484-0.072v-5.798
				c0.152-0.046,0.314-0.072,0.484-0.072H316.789z"/>
			<rect x="317.874" y="96.859" style="opacity:0.5;fill:#0E1859;" width="1.442" height="5.941"/>
			<rect x="320.4" y="96.859" style="opacity:0.5;fill:#0E1859;" width="1.434" height="5.941"/>
			<rect x="322.927" y="96.859" style="opacity:0.5;fill:#0E1859;" width="1.434" height="5.941"/>
			<rect x="325.446" y="96.859" style="opacity:0.5;fill:#0E1859;" width="1.443" height="5.941"/>
			<path style="opacity:0.5;fill:#0E1859;" d="M329.415,96.931v5.798c-0.152,0.045-0.313,0.072-0.484,0.072h-0.958v-5.941h0.958
				C329.102,96.859,329.264,96.886,329.415,96.931z"/>
		</g>
		<path style="opacity:0.2;fill:#0E1859;" d="M330.724,98.651v2.357c0,0.815-0.546,1.515-1.309,1.721
			c-0.152,0.045-0.313,0.072-0.484,0.072H315.83c-0.17,0-0.332-0.027-0.484-0.072c-0.762-0.206-1.309-0.905-1.309-1.721v-0.403
			c3.782,1.479,14.025,0.636,14.652-0.099c0.583-0.681,0.699-2.187,0.188-3.647h0.054c0.171,0,0.332,0.026,0.484,0.072
			C330.178,97.137,330.724,97.836,330.724,98.651z"/>
		<rect x="315.042" y="107.326" style="fill:#D1377D;" width="14.679" height="14.052"/>
		<path style="opacity:0.5;fill:#FFFFFF;" d="M319.316,122.71c0,0.963-0.78,1.744-1.743,1.744l0,0c-0.963,0-1.744-0.781-1.744-1.744
			v-15.764c0-0.963,0.781-1.744,1.744-1.744l0,0c0.963,0,1.743,0.781,1.743,1.744V122.71z"/>
		<path style="opacity:0.5;fill:#B4B9D9;" d="M320.171,93.145c0,0,0-3.261,0-4.604c0-1.343,0.144-1.918,0.575-1.918
			c0.432,0,0.384,1.127,0.384,2.038c0,0.912,0,4.484,0,4.484s0.464,0.959-0.631,1.966c-1.095,1.007-1.263,1.894-1.934,1.486
			c-0.672-0.408,0.455-1.463,0.743-1.966C319.595,94.128,320.171,94.224,320.171,93.145z"/>
		<path style="opacity:0.2;fill:#0E1859;" d="M329.72,104.593v21.284c0,0.986-0.806,1.792-1.792,1.792h-11.095
			c-0.986,0-1.792-0.807-1.792-1.792v-1.093c3.11,1.443,11.13,1.488,11.13-0.923v-14.849c0-0.565,0.009-1.138-0.026-1.685
			c-0.117-1.909-0.78-3.522-4.31-3.522h-6.605c0.287-0.591,0.905-1.003,1.604-1.003h11.095
			C328.914,102.801,329.72,103.607,329.72,104.593z"/>
	</g>
	<g>
		<path style="fill:#6D7EE3;" d="M348.718,98.006c-0.009,0.197-0.018,0.394-0.054,0.591c-0.358,2.769-2.76,4.884-5.628,4.821
			c-3.065-0.08-5.485-2.617-5.413-5.682c0.054-1.99,1.147-3.71,2.743-4.642v-5.413c0-0.824,0.358-1.559,0.923-2.07
			c0.493-0.457,1.156-0.735,1.882-0.735c1.55,0,2.796,1.254,2.796,2.805v5.404C347.652,94.072,348.763,95.918,348.718,98.006z"/>
		<path style="opacity:0.2;fill:#0E1859;" d="M348.718,98.006c-0.009,0.197-0.018,0.394-0.054,0.591h-5.493
			c0,0,2.859-1.738,2.231-3.164c-0.627-1.434-1.739-2.303-1.739-2.303s0.072-2.222,0-4.311c-0.044-1.308-1.066-2.751-2.375-3.208
			c0.493-0.457,1.156-0.735,1.882-0.735c1.55,0,2.796,1.254,2.796,2.805v5.404C347.652,94.072,348.763,95.918,348.718,98.006z"/>
		<path style="fill:#AFECF0;" d="M350.51,104.593v21.284c0,0.986-0.806,1.792-1.792,1.792h-11.095c-0.986,0-1.792-0.807-1.792-1.792
			v-21.284c0-0.287,0.072-0.546,0.188-0.789c0.287-0.591,0.905-1.003,1.604-1.003h11.095
			C349.704,102.801,350.51,103.607,350.51,104.593z"/>
		<path style="fill:#2B8DD9;" d="M351.514,98.651v2.357c0,0.815-0.546,1.515-1.309,1.721c-0.152,0.045-0.314,0.072-0.484,0.072
			H336.62c-0.17,0-0.332-0.027-0.484-0.072c-0.762-0.206-1.309-0.905-1.309-1.721v-2.357c0-0.815,0.546-1.514,1.309-1.72
			c0.152-0.046,0.314-0.072,0.484-0.072h13.102c0.17,0,0.332,0.026,0.484,0.072C350.968,97.137,351.514,97.836,351.514,98.651z"/>
		<g>
			<path style="opacity:0.5;fill:#0E1859;" d="M337.579,96.859v5.941h-0.959c-0.17,0-0.332-0.027-0.484-0.072v-5.798
				c0.152-0.046,0.314-0.072,0.484-0.072H337.579z"/>
			<rect x="338.664" y="96.859" style="opacity:0.5;fill:#0E1859;" width="1.442" height="5.941"/>
			<rect x="341.19" y="96.859" style="opacity:0.5;fill:#0E1859;" width="1.434" height="5.941"/>
			<rect x="343.717" y="96.859" style="opacity:0.5;fill:#0E1859;" width="1.434" height="5.941"/>
			<rect x="346.236" y="96.859" style="opacity:0.5;fill:#0E1859;" width="1.443" height="5.941"/>
			<path style="opacity:0.5;fill:#0E1859;" d="M350.206,96.931v5.798c-0.152,0.045-0.314,0.072-0.484,0.072h-0.959v-5.941h0.959
				C349.892,96.859,350.054,96.886,350.206,96.931z"/>
		</g>
		<path style="opacity:0.2;fill:#0E1859;" d="M351.514,98.651v2.357c0,0.815-0.546,1.515-1.309,1.721
			c-0.152,0.045-0.314,0.072-0.484,0.072H336.62c-0.17,0-0.332-0.027-0.484-0.072c-0.762-0.206-1.309-0.905-1.309-1.721v-0.403
			c3.782,1.479,14.025,0.636,14.652-0.099c0.582-0.681,0.699-2.187,0.188-3.647h0.054c0.17,0,0.332,0.026,0.484,0.072
			C350.968,97.137,351.514,97.836,351.514,98.651z"/>
		<rect x="335.832" y="107.326" style="fill:#D1377D;" width="14.679" height="14.052"/>
		<path style="opacity:0.5;fill:#FFFFFF;" d="M340.106,122.71c0,0.963-0.78,1.744-1.743,1.744l0,0c-0.963,0-1.744-0.781-1.744-1.744
			v-15.764c0-0.963,0.781-1.744,1.744-1.744l0,0c0.963,0,1.743,0.781,1.743,1.744V122.71z"/>
		<path style="opacity:0.5;fill:#B4B9D9;" d="M340.961,93.145c0,0,0-3.261,0-4.604c0-1.343,0.144-1.918,0.575-1.918
			c0.432,0,0.384,1.127,0.384,2.038c0,0.912,0,4.484,0,4.484s0.464,0.959-0.631,1.966c-1.095,1.007-1.263,1.894-1.935,1.486
			c-0.672-0.408,0.455-1.463,0.743-1.966C340.385,94.128,340.961,94.224,340.961,93.145z"/>
		<path style="opacity:0.2;fill:#0E1859;" d="M350.51,104.593v21.284c0,0.986-0.806,1.792-1.792,1.792h-11.095
			c-0.986,0-1.792-0.807-1.792-1.792v-1.093c3.11,1.443,11.13,1.488,11.13-0.923v-14.849c0-0.565,0.009-1.138-0.026-1.685
			c-0.117-1.909-0.78-3.522-4.311-3.522h-6.605c0.287-0.591,0.905-1.003,1.604-1.003h11.095
			C349.704,102.801,350.51,103.607,350.51,104.593z"/>
	</g>
	<g>
		<path style="fill:#6D7EE3;" d="M369.508,98.006c-0.009,0.197-0.018,0.394-0.054,0.591c-0.358,2.769-2.76,4.884-5.627,4.821
			c-3.065-0.08-5.485-2.617-5.413-5.682c0.054-1.99,1.147-3.71,2.743-4.642v-5.413c0-0.824,0.358-1.559,0.923-2.07
			c0.493-0.457,1.156-0.735,1.882-0.735c1.55,0,2.796,1.254,2.796,2.805v5.404C368.442,94.072,369.553,95.918,369.508,98.006z"/>
		<path style="opacity:0.2;fill:#0E1859;" d="M369.508,98.006c-0.009,0.197-0.018,0.394-0.054,0.591h-5.493
			c0,0,2.859-1.738,2.231-3.164c-0.627-1.434-1.739-2.303-1.739-2.303s0.072-2.222,0-4.311c-0.044-1.308-1.066-2.751-2.374-3.208
			c0.493-0.457,1.156-0.735,1.882-0.735c1.55,0,2.796,1.254,2.796,2.805v5.404C368.442,94.072,369.553,95.918,369.508,98.006z"/>
		<path style="fill:#AFECF0;" d="M371.3,104.593v21.284c0,0.986-0.806,1.792-1.792,1.792h-11.095c-0.986,0-1.792-0.807-1.792-1.792
			v-21.284c0-0.287,0.072-0.546,0.188-0.789c0.287-0.591,0.905-1.003,1.604-1.003h11.095
			C370.494,102.801,371.3,103.607,371.3,104.593z"/>
		<path style="fill:#2B8DD9;" d="M372.304,98.651v2.357c0,0.815-0.546,1.515-1.309,1.721c-0.152,0.045-0.314,0.072-0.484,0.072
			H357.41c-0.171,0-0.332-0.027-0.484-0.072c-0.762-0.206-1.309-0.905-1.309-1.721v-2.357c0-0.815,0.546-1.514,1.309-1.72
			c0.152-0.046,0.313-0.072,0.484-0.072h13.102c0.17,0,0.332,0.026,0.484,0.072C371.758,97.137,372.304,97.836,372.304,98.651z"/>
		<g>
			<path style="opacity:0.5;fill:#0E1859;" d="M358.369,96.859v5.941h-0.959c-0.171,0-0.332-0.027-0.484-0.072v-5.798
				c0.152-0.046,0.313-0.072,0.484-0.072H358.369z"/>
			<rect x="359.454" y="96.859" style="opacity:0.5;fill:#0E1859;" width="1.442" height="5.941"/>
			<rect x="361.98" y="96.859" style="opacity:0.5;fill:#0E1859;" width="1.434" height="5.941"/>
			<rect x="364.507" y="96.859" style="opacity:0.5;fill:#0E1859;" width="1.434" height="5.941"/>
			<rect x="367.026" y="96.859" style="opacity:0.5;fill:#0E1859;" width="1.443" height="5.941"/>
			<path style="opacity:0.5;fill:#0E1859;" d="M370.996,96.931v5.798c-0.152,0.045-0.314,0.072-0.484,0.072h-0.958v-5.941h0.958
				C370.682,96.859,370.844,96.886,370.996,96.931z"/>
		</g>
		<path style="opacity:0.2;fill:#0E1859;" d="M372.304,98.651v2.357c0,0.815-0.546,1.515-1.309,1.721
			c-0.152,0.045-0.314,0.072-0.484,0.072H357.41c-0.171,0-0.332-0.027-0.484-0.072c-0.762-0.206-1.309-0.905-1.309-1.721v-0.403
			c3.782,1.479,14.025,0.636,14.652-0.099c0.583-0.681,0.699-2.187,0.188-3.647h0.054c0.17,0,0.332,0.026,0.484,0.072
			C371.758,97.137,372.304,97.836,372.304,98.651z"/>
		<rect x="356.622" y="107.326" style="fill:#D1377D;" width="14.679" height="14.052"/>
		<path style="opacity:0.5;fill:#FFFFFF;" d="M360.896,122.71c0,0.963-0.78,1.744-1.743,1.744l0,0c-0.963,0-1.744-0.781-1.744-1.744
			v-15.764c0-0.963,0.781-1.744,1.744-1.744l0,0c0.963,0,1.743,0.781,1.743,1.744V122.71z"/>
		<path style="opacity:0.5;fill:#B4B9D9;" d="M361.751,93.145c0,0,0-3.261,0-4.604c0-1.343,0.143-1.918,0.575-1.918
			c0.432,0,0.384,1.127,0.384,2.038c0,0.912,0,4.484,0,4.484s0.464,0.959-0.631,1.966c-1.095,1.007-1.263,1.894-1.935,1.486
			c-0.672-0.408,0.455-1.463,0.743-1.966C361.175,94.128,361.751,94.224,361.751,93.145z"/>
		<path style="opacity:0.2;fill:#0E1859;" d="M371.3,104.593v21.284c0,0.986-0.806,1.792-1.792,1.792h-11.095
			c-0.986,0-1.792-0.807-1.792-1.792v-1.093c3.11,1.443,11.13,1.488,11.13-0.923v-14.849c0-0.565,0.009-1.138-0.026-1.685
			c-0.117-1.909-0.78-3.522-4.31-3.522h-6.605c0.287-0.591,0.905-1.003,1.604-1.003h11.095
			C370.494,102.801,371.3,103.607,371.3,104.593z"/>
	</g>
	<g>
		<path style="fill:#FFFFFF;" d="M373.354,228.002v31.66c0,1.66-1.34,3-3,3h-19.76c-1.66,0-3-1.34-3-3v-31.66
			c0-0.58,0.18-1.12,0.46-1.57v-0.01l0.02-0.03c0.1-0.16,0.21-0.3,0.34-0.44l3.1-3.97l1.25-1.6v-2.45h6.36
			c0.35-0.34,0.82-0.55,1.35-0.55c0.53,0,1,0.21,1.36,0.55h6.36v2.45l4.54,5.81c0.04,0.05,0.08,0.1,0.12,0.16l0.05,0.07l-0.01,0.01
			C373.174,226.892,373.354,227.422,373.354,228.002z"/>
		<rect x="347.599" y="233.349" style="fill:#5582DE;" width="25.75" height="22.06"/>
		<path style="opacity:0.2;fill:#0E1859;" d="M373.354,228.002v31.66c0,1.66-1.34,3-3,3h-9.38c6.38-1.5,5.5-7.75,5.5-18.28
			c0-10.53,0-19.1-4.62-20.47c-3.6-1.07-7.66-0.55-10.34-1.93l1.25-1.6v-2.45h6.36c0.35-0.34,0.82-0.55,1.35-0.55
			c0.53,0,1,0.21,1.36,0.55h6.36v2.45l4.54,5.81c0.04,0.05,0.08,0.1,0.12,0.16l0.05,0.07l-0.01,0.01
			C373.174,226.892,373.354,227.422,373.354,228.002z"/>
		<path style="opacity:0.5;fill:#FFFFFF;" d="M356.349,257.032c0,1.657-1.343,3-3,3h-0.375c-1.657,0-3-1.343-3-3v-26.095
			c0-1.657,1.343-3,3-3h0.375c1.657,0,3,1.343,3,3V257.032z"/>
		<path style="fill:#5582DE;" d="M370.034,214.282v1.75c0,1.24-0.74,2.3-1.81,2.75c-0.36,0.16-0.77,0.25-1.19,0.25h-13.12
			c-0.42,0-0.83-0.09-1.19-0.25c-0.83-0.35-1.46-1.06-1.7-1.94c-0.07-0.26-0.11-0.53-0.11-0.81v-1.75c0-1.23,0.74-2.29,1.81-2.75
			c0.36-0.16,0.77-0.25,1.19-0.25h13.12c0.07,0,0.14,0,0.2,0.01c0.35,0.02,0.69,0.11,0.99,0.24
			C369.294,211.992,370.034,213.052,370.034,214.282z"/>
		<g>
			<path style="opacity:0.5;fill:#0E1859;" d="M354.474,211.282v7.75h-0.56c-0.42,0-0.83-0.09-1.19-0.25v-7.25
				c0.36-0.16,0.77-0.25,1.19-0.25H354.474z"/>
			<rect x="355.474" y="211.282" style="opacity:0.5;fill:#0E1859;" width="1.75" height="7.75"/>
			<rect x="358.224" y="211.282" style="opacity:0.5;fill:#0E1859;" width="1.75" height="7.75"/>
			<rect x="360.974" y="211.282" style="opacity:0.5;fill:#0E1859;" width="1.75" height="7.75"/>
			<rect x="363.724" y="211.282" style="opacity:0.5;fill:#0E1859;" width="1.75" height="7.75"/>
			<path style="opacity:0.5;fill:#0E1859;" d="M368.224,211.532v7.25c-0.36,0.16-0.77,0.25-1.19,0.25h-0.56v-7.75h0.56
				C367.454,211.282,367.864,211.372,368.224,211.532z"/>
		</g>
		<path style="opacity:0.2;fill:#0E1859;" d="M370.034,214.282v1.75c0,1.24-0.74,2.3-1.81,2.75c-0.36,0.16-0.77,0.25-1.19,0.25
			h-13.12c-0.42,0-0.83-0.09-1.19-0.25c-0.83-0.35-1.46-1.06-1.7-1.94c0.29,0.26,0.7,0.54,1.16,0.54h12.53
			c1.55,0,2.51,0.13,2.51-2.07c0-1.42,0.01-3.039,0.01-4.02c0.35,0.02,0.69,0.11,0.99,0.24
			C369.294,211.992,370.034,213.052,370.034,214.282z"/>
	</g>
	<g>
		<path style="fill:#FFFFFF;" d="M333.379,228.002v31.66c0,1.66-1.34,3-3,3h-19.76c-1.66,0-3-1.34-3-3v-31.66
			c0-0.58,0.18-1.12,0.46-1.57v-0.01l0.02-0.03c0.1-0.16,0.21-0.3,0.34-0.44l3.1-3.97l1.25-1.6v-2.45h6.36
			c0.35-0.34,0.82-0.55,1.35-0.55c0.53,0,1,0.21,1.36,0.55h6.36v2.45l4.54,5.81c0.04,0.05,0.08,0.1,0.12,0.16l0.05,0.07l-0.01,0.01
			C333.199,226.892,333.379,227.422,333.379,228.002z"/>
		<rect x="307.624" y="233.349" style="fill:#5582DE;" width="25.75" height="22.06"/>
		<path style="opacity:0.2;fill:#0E1859;" d="M333.379,228.002v31.66c0,1.66-1.34,3-3,3h-9.38c6.38-1.5,5.5-7.75,5.5-18.28
			c0-10.53,0-19.1-4.62-20.47c-3.6-1.07-7.66-0.55-10.34-1.93l1.25-1.6v-2.45h6.36c0.35-0.34,0.82-0.55,1.35-0.55
			c0.53,0,1,0.21,1.36,0.55h6.36v2.45l4.54,5.81c0.04,0.05,0.08,0.1,0.12,0.16l0.05,0.07l-0.01,0.01
			C333.199,226.892,333.379,227.422,333.379,228.002z"/>
		<path style="opacity:0.5;fill:#FFFFFF;" d="M316.374,257.032c0,1.657-1.343,3-3,3h-0.375c-1.657,0-3-1.343-3-3v-26.095
			c0-1.657,1.343-3,3-3h0.375c1.657,0,3,1.343,3,3V257.032z"/>
		<path style="fill:#5582DE;" d="M330.059,214.282v1.75c0,1.24-0.74,2.3-1.81,2.75c-0.36,0.16-0.77,0.25-1.19,0.25h-13.12
			c-0.42,0-0.83-0.09-1.19-0.25c-0.83-0.35-1.46-1.06-1.7-1.94c-0.07-0.26-0.11-0.53-0.11-0.81v-1.75c0-1.23,0.74-2.29,1.81-2.75
			c0.36-0.16,0.77-0.25,1.19-0.25h13.12c0.07,0,0.14,0,0.2,0.01c0.35,0.02,0.69,0.11,0.99,0.24
			C329.319,211.992,330.059,213.052,330.059,214.282z"/>
		<g>
			<path style="opacity:0.5;fill:#0E1859;" d="M314.499,211.282v7.75h-0.56c-0.42,0-0.83-0.09-1.19-0.25v-7.25
				c0.36-0.16,0.77-0.25,1.19-0.25H314.499z"/>
			<rect x="315.499" y="211.282" style="opacity:0.5;fill:#0E1859;" width="1.75" height="7.75"/>
			<rect x="318.249" y="211.282" style="opacity:0.5;fill:#0E1859;" width="1.75" height="7.75"/>
			<rect x="320.999" y="211.282" style="opacity:0.5;fill:#0E1859;" width="1.75" height="7.75"/>
			<rect x="323.749" y="211.282" style="opacity:0.5;fill:#0E1859;" width="1.75" height="7.75"/>
			<path style="opacity:0.5;fill:#0E1859;" d="M328.249,211.532v7.25c-0.36,0.16-0.77,0.25-1.19,0.25h-0.56v-7.75h0.56
				C327.479,211.282,327.889,211.372,328.249,211.532z"/>
		</g>
		<path style="opacity:0.2;fill:#0E1859;" d="M330.059,214.282v1.75c0,1.24-0.74,2.3-1.81,2.75c-0.36,0.16-0.77,0.25-1.19,0.25
			h-13.12c-0.42,0-0.83-0.09-1.19-0.25c-0.83-0.35-1.46-1.06-1.7-1.94c0.29,0.26,0.7,0.54,1.16,0.54h12.53
			c1.55,0,2.51,0.13,2.51-2.07c0-1.42,0.01-3.039,0.01-4.02c0.35,0.02,0.69,0.11,0.99,0.24
			C329.319,211.992,330.059,213.052,330.059,214.282z"/>
	</g>
	<g>
		<path style="fill:#FFFFFF;" d="M293.404,228.002v31.66c0,1.66-1.34,3-3,3h-19.76c-1.66,0-3-1.34-3-3v-31.66
			c0-0.58,0.18-1.12,0.46-1.57v-0.01l0.02-0.03c0.1-0.16,0.21-0.3,0.34-0.44l3.1-3.97l1.25-1.6v-2.45h6.36
			c0.35-0.34,0.82-0.55,1.35-0.55c0.53,0,1,0.21,1.36,0.55h6.36v2.45l4.54,5.81c0.04,0.05,0.08,0.1,0.12,0.16l0.05,0.07l-0.01,0.01
			C293.224,226.892,293.404,227.422,293.404,228.002z"/>
		<rect x="267.649" y="233.349" style="fill:#5582DE;" width="25.75" height="22.06"/>
		<path style="opacity:0.2;fill:#0E1859;" d="M293.404,228.002v31.66c0,1.66-1.34,3-3,3h-9.38c6.38-1.5,5.5-7.75,5.5-18.28
			c0-10.53,0-19.1-4.62-20.47c-3.6-1.07-7.66-0.55-10.34-1.93l1.25-1.6v-2.45h6.36c0.35-0.34,0.82-0.55,1.35-0.55
			c0.53,0,1,0.21,1.36,0.55h6.36v2.45l4.54,5.81c0.04,0.05,0.08,0.1,0.12,0.16l0.05,0.07l-0.01,0.01
			C293.224,226.892,293.404,227.422,293.404,228.002z"/>
		<path style="opacity:0.5;fill:#FFFFFF;" d="M276.399,257.032c0,1.657-1.343,3-3,3h-0.375c-1.657,0-3-1.343-3-3v-26.095
			c0-1.657,1.343-3,3-3h0.375c1.657,0,3,1.343,3,3V257.032z"/>
		<path style="fill:#5582DE;" d="M290.084,214.282v1.75c0,1.24-0.74,2.3-1.81,2.75c-0.36,0.16-0.77,0.25-1.19,0.25h-13.12
			c-0.42,0-0.83-0.09-1.19-0.25c-0.83-0.35-1.46-1.06-1.7-1.94c-0.07-0.26-0.11-0.53-0.11-0.81v-1.75c0-1.23,0.74-2.29,1.81-2.75
			c0.36-0.16,0.77-0.25,1.19-0.25h13.12c0.07,0,0.14,0,0.2,0.01c0.35,0.02,0.69,0.11,0.99,0.24
			C289.344,211.992,290.084,213.052,290.084,214.282z"/>
		<g>
			<path style="opacity:0.5;fill:#0E1859;" d="M274.524,211.282v7.75h-0.56c-0.42,0-0.83-0.09-1.19-0.25v-7.25
				c0.36-0.16,0.77-0.25,1.19-0.25H274.524z"/>
			<rect x="275.524" y="211.282" style="opacity:0.5;fill:#0E1859;" width="1.75" height="7.75"/>
			<rect x="278.274" y="211.282" style="opacity:0.5;fill:#0E1859;" width="1.75" height="7.75"/>
			<rect x="281.024" y="211.282" style="opacity:0.5;fill:#0E1859;" width="1.75" height="7.75"/>
			<rect x="283.774" y="211.282" style="opacity:0.5;fill:#0E1859;" width="1.75" height="7.75"/>
			<path style="opacity:0.5;fill:#0E1859;" d="M288.274,211.532v7.25c-0.36,0.16-0.77,0.25-1.19,0.25h-0.56v-7.75h0.56
				C287.504,211.282,287.914,211.372,288.274,211.532z"/>
		</g>
		<path style="opacity:0.2;fill:#0E1859;" d="M290.084,214.282v1.75c0,1.24-0.74,2.3-1.81,2.75c-0.36,0.16-0.77,0.25-1.19,0.25
			h-13.12c-0.42,0-0.83-0.09-1.19-0.25c-0.83-0.35-1.46-1.06-1.7-1.94c0.29,0.26,0.7,0.54,1.16,0.54h12.53
			c1.55,0,2.51,0.13,2.51-2.07c0-1.42,0.01-3.039,0.01-4.02c0.35,0.02,0.69,0.11,0.99,0.24
			C289.344,211.992,290.084,213.052,290.084,214.282z"/>
	</g>
	<g>
		<path style="fill:#FFFFFF;" d="M253.429,228.002v31.66c0,1.66-1.34,3-3,3h-19.76c-1.66,0-3-1.34-3-3v-31.66
			c0-0.58,0.18-1.12,0.46-1.57v-0.01l0.02-0.03c0.1-0.16,0.21-0.3,0.34-0.44l3.1-3.97l1.25-1.6v-2.45h6.36
			c0.35-0.34,0.82-0.55,1.35-0.55s1,0.21,1.36,0.55h6.36v2.45l4.54,5.81c0.04,0.05,0.08,0.1,0.12,0.16l0.05,0.07l-0.01,0.01
			C253.249,226.892,253.429,227.422,253.429,228.002z"/>
		<rect x="227.674" y="233.349" style="fill:#5582DE;" width="25.75" height="22.06"/>
		<path style="opacity:0.2;fill:#0E1859;" d="M253.429,228.002v31.66c0,1.66-1.34,3-3,3h-9.38c6.38-1.5,5.5-7.75,5.5-18.28
			c0-10.53,0-19.1-4.62-20.47c-3.6-1.07-7.66-0.55-10.34-1.93l1.25-1.6v-2.45h6.36c0.35-0.34,0.82-0.55,1.35-0.55s1,0.21,1.36,0.55
			h6.36v2.45l4.54,5.81c0.04,0.05,0.08,0.1,0.12,0.16l0.05,0.07l-0.01,0.01C253.249,226.892,253.429,227.422,253.429,228.002z"/>
		<path style="opacity:0.5;fill:#FFFFFF;" d="M236.424,257.032c0,1.657-1.343,3-3,3h-0.375c-1.657,0-3-1.343-3-3v-26.095
			c0-1.657,1.343-3,3-3h0.375c1.657,0,3,1.343,3,3V257.032z"/>
		<path style="fill:#5582DE;" d="M250.109,214.282v1.75c0,1.24-0.74,2.3-1.81,2.75c-0.36,0.16-0.77,0.25-1.19,0.25h-13.12
			c-0.42,0-0.83-0.09-1.19-0.25c-0.83-0.35-1.46-1.06-1.7-1.94c-0.07-0.26-0.11-0.53-0.11-0.81v-1.75c0-1.23,0.74-2.29,1.81-2.75
			c0.36-0.16,0.77-0.25,1.19-0.25h13.12c0.07,0,0.14,0,0.2,0.01c0.35,0.02,0.69,0.11,0.99,0.24
			C249.369,211.992,250.109,213.052,250.109,214.282z"/>
		<g>
			<path style="opacity:0.5;fill:#0E1859;" d="M234.549,211.282v7.75h-0.56c-0.42,0-0.83-0.09-1.19-0.25v-7.25
				c0.36-0.16,0.77-0.25,1.19-0.25H234.549z"/>
			<rect x="235.549" y="211.282" style="opacity:0.5;fill:#0E1859;" width="1.75" height="7.75"/>
			<rect x="238.299" y="211.282" style="opacity:0.5;fill:#0E1859;" width="1.75" height="7.75"/>
			<rect x="241.049" y="211.282" style="opacity:0.5;fill:#0E1859;" width="1.75" height="7.75"/>
			<rect x="243.799" y="211.282" style="opacity:0.5;fill:#0E1859;" width="1.75" height="7.75"/>
			<path style="opacity:0.5;fill:#0E1859;" d="M248.299,211.532v7.25c-0.36,0.16-0.77,0.25-1.19,0.25h-0.56v-7.75h0.56
				C247.529,211.282,247.939,211.372,248.299,211.532z"/>
		</g>
		<path style="opacity:0.2;fill:#0E1859;" d="M250.109,214.282v1.75c0,1.24-0.74,2.3-1.81,2.75c-0.36,0.16-0.77,0.25-1.19,0.25
			h-13.12c-0.42,0-0.83-0.09-1.19-0.25c-0.83-0.35-1.46-1.06-1.7-1.94c0.29,0.26,0.7,0.54,1.16,0.54h12.53
			c1.55,0,2.51,0.13,2.51-2.07c0-1.42,0.01-3.039,0.01-4.02c0.35,0.02,0.69,0.11,0.99,0.24
			C249.369,211.992,250.109,213.052,250.109,214.282z"/>
	</g>
	<g>
		<g>
			<path style="fill:#D1377D;" d="M270.08,294.78c-10.66,7.24-75.7,18.53-107.22,2.08c-7.66-3.98-13.34-9.61-15.78-17.33
				c-12.5-39.5,9.25-45.33,14.25-58.41c5-13.09,2.75-19.34,2.75-19.34s30.75-22,45.75-29.75c15-7.75,29.75-13.75,37.75-3.25
				c3.09,4.06,7.95,11.18,12.74,18.4c7.58,11.44,15.01,23.1,15.01,23.1c0,12.75,9.75,17.79,14.5,39.02
				C294.58,270.53,283.33,285.78,270.08,294.78z"/>
			<path style="opacity:0.4;fill:#7A1159;" d="M270.08,294.78c-10.66,7.24-75.7,18.53-107.22,2.08c0.9-2.85,2.53-6.41,5.38-10.58
				c8.01-11.69,18.84-13.51,29.61-18c10.76-4.49,32.2-2,32.2-2s10.78,5.73,17.37,3.47c6.6-2.26,10.56,4.56,20.23,4.63
				c9.67,0.08,13.11-25.92,8.75-34.36c-4.36-8.44-11.26-10.95-11.26-10.95s-5.11,9.67-14.22,13.55c0,0-0.62-44.07,6.93-53.27
				c0.8-0.97,1.63-1.69,2.47-2.17c7.58,11.44,15.01,23.1,15.01,23.1c0,12.75,9.75,17.79,14.5,39.02
				C294.58,270.53,283.33,285.78,270.08,294.78z"/>
			<path style="fill:#BF236A;" d="M271.33,221.12c-8.5-1.92-12-9.45-12-9.45l-11.1-1.03l-69.47-6.45c0,0-8.93,11.34-16.18,6.09
				s-6-9.75,0-18s17.5-35.5,40.25-43.25c21.46-7.31,33.35,3.84,34.63,5.12c-0.87-1.01-6.26-7.47-4.09-10.77
				c0.37-0.55,0.95-1.02,1.79-1.35c6.33-2.5,9.6,8,9.6,8s4.82-5.5,8.49-1c3.67,4.5-2.84,9-2.84,9c13.59,0.25,19.17,8.5,22.17,25.25
				s8,19.25,10.25,29.25S279.83,223.03,271.33,221.12z"/>
			<path style="opacity:0.4;fill:#7A1159;" d="M271.33,221.12c-8.5-1.92-12-9.45-12-9.45l-11.1-1.03
				c-6.88-8.08-12.66-18.23-14.99-25.35c-3.76-11.47,5.29-10.02,10.56,0.69c5.27,10.71,26.72,20.25,18.78,4.64
				c-7.94-15.61-16.82-30.97-16.82-30.97s5.56-4.6,1.66-6.65c-3.9-2.05-6.37,4.09-6.37,4.09s-2.92-12.12-7.68-13.71
				c0.37-0.55,0.95-1.02,1.79-1.35c6.33-2.5,9.6,8,9.6,8s4.82-5.5,8.49-1c3.67,4.5-2.84,9-2.84,9c13.59,0.25,19.17,8.5,22.17,25.25
				s8,19.25,10.25,29.25S279.83,223.03,271.33,221.12z"/>
			<path style="fill:#FC9279;" d="M228.747,278.783c0,0-7.65,14-10.66,15c-3.01,1-13.76-15.75-13.76-15.75s0.01-0.02,0.04-0.06
				c0.28-0.48,2.03-3.85,1.72-13.26c-0.05-1.69-0.17-3.58-0.38-5.68c-0.04-0.4-0.08-0.81-0.13-1.22c-1.75-15.78,22.4,0,22.4,0
				s-0.04,0.36-0.1,1C227.617,261.773,227.037,270.773,228.747,278.783z"/>
			<path style="opacity:0.3;fill:#B84D4D;" d="M228.747,278.783c0,0-7.65,14-10.66,15c-3.01,1-13.76-15.75-13.76-15.75
				s0.01-0.02,0.04-0.06c2.89,3,12.35,12.18,14.92,6.91c3.03-6.26,0-18.43,0-18.43s-7.17,0.04-13.2-1.74
				c-0.05-1.69-0.17-3.58-0.38-5.68c2.85-1.98,7.17-3.85,12.81-3.08c3.75,0.51,6.88,1.57,9.36,2.86
				C227.617,261.773,227.037,270.773,228.747,278.783z"/>
			<path style="fill:#FCB791;" d="M257.577,240.783c-6,18-28.17,22-33.83,22c-3.21,0-11.24,0.64-20.2-1.93
				c-6.86-1.96-14.26-5.8-20.47-13.24c-12.79-15.31-7-38.33-5.6-43.11c0.17-0.58,0.27-0.89,0.27-0.89s8.83,6.84,31.16-5.66
				c16.91-9.47,26.34-22,26.34-22s0.5,5,6.83,17.33c6.33,12.33,18,17.33,18,17.33S263.577,222.783,257.577,240.783z"/>
			<path style="opacity:0.3;fill:#B84D4D;" d="M257.577,240.783c-6,18-28.17,22-33.83,22c-3.21,0-11.24,0.64-20.2-1.93
				c2.92-0.78,6.13-1.78,9.64-3.04c34.64-12.44,16.98-62.53,16.98-62.53c-10.57,16.47-39.49,17.15-52.69,9.22
				c0.17-0.58,0.27-0.89,0.27-0.89s8.83,6.84,31.16-5.66c16.91-9.47,26.34-22,26.34-22s0.5,5,6.83,17.33
				c6.33,12.33,18,17.33,18,17.33S263.577,222.783,257.577,240.783z"/>
			<path style="fill:#FFFFFF;stroke:#000000;stroke-miterlimit:10;" d="M181.086,279.513c0,0.01-0.01,0.01-0.01,0.01v-0.01H181.086z
				"/>
			<path style="opacity:0.3;fill:#FFBBD9;" d="M162.86,221.447c2.215-3.954,5.32-3.979,6.967,0
				c1.646,3.98-3.578,14.108-12.227,25.679c-8.649,11.571,2.982,30.478,4.333,35.485c1.351,5.007-8.198,9.738-13.237-10.298
				c-5.039-20.036,0.875-28.33,6.767-36.589C159.734,229.735,162.86,221.447,162.86,221.447z"/>
			<path style="opacity:0.3;fill:#FFBBD9;" d="M201.929,153.51c-7.387,3.419-36.824,34.996-39.069,45.083
				c-2.245,10.087,5.798,9.888,9.125,4.413c3.327-5.476,15.383-25.924,25.863-34.127C208.327,160.676,207.374,150.99,201.929,153.51
				z"/>
		</g>
		<g>
			<path style="fill:#FCB791;" d="M370.327,237.613c-1.23,5.55-10.91,17.45-10.91,17.45s-4.12-0.78-9.26-3.66
				c-5.15-2.88-8.55-4.74-8.55-4.74s0.52-3.29-0.82-5.25c-1.34-1.95-3.5-3.08-6.28-5.35c-2.54-2.07-6.8-3.28-7.82-5.2
				c-0.11-0.18-0.18-0.37-0.21-0.56c-0.41-2.27,2.37-4.43,5.56-4.02c3.19,0.41,9.68,5.25,11.63,5.36c1.96,0.1,4.74-3.71,5.77-7.21
				c0.03-0.1,0.05-0.2,0.07-0.3c0.23-1.04,0.2-2.39,0.01-3.86c-0.49-3.67-2.01-8-2.86-9.43c-1.24-2.06-7.62-5.97-10.5-8.03
				c-2.33-1.66-2.58-4.39-0.97-5.86c0.39-0.36,0.88-0.65,1.48-0.83c3.09-0.93,9.88,3.29,11.22,4.74c1.34,1.44,6.9,7.2,7.93,10.91
				c1.03,3.7,8.95,11.84,11.01,13.69C368.887,227.313,371.567,232.053,370.327,237.613z"/>
			<path style="opacity:0.3;fill:#B84D4D;" d="M349.507,224.133c0.23-1.04,0.2-2.39,0.01-3.86c-0.49-3.67-2.01-8-2.86-9.43
				c-1.24-2.06-7.62-5.97-10.5-8.03c-2.33-1.66-2.58-4.39-0.97-5.86c1.1,1.38,3.14,2.46,5.51,3.83c4.13,2.38,9.74,7.21,11.31,11.6
				C353.356,216.153,351.467,221.753,349.507,224.133z"/>
			<path style="opacity:0.3;fill:#B84D4D;" d="M366.767,234.783c-1.18,4.12-3.94,8.5-8.66,5.72c-4.73-2.78-8.01,3.48-8.01,3.48
				s0.48-3.32-1.56-3.96c-2.03-0.64-4.34,1.01-5.42-1.62c-1.08-2.62-2.66-4.24-7.42-5.97c-3.63-1.33-7.07-2.56-9.01-1.57
				c-0.11-0.18-0.18-0.37-0.21-0.56c-0.41-2.27,2.37-4.43,5.56-4.02c3.19,0.41,9.68,5.25,11.63,5.36c1.96,0.1,4.74-3.71,5.77-7.21
				c0.31-1.07,0.29-2.55,0.08-4.16C359.097,222.473,367.876,230.933,366.767,234.783z"/>
			<path style="fill:#06B2AE;" d="M253.577,417.783c0,0-6.25,1.979-23,2.99c-3.18,0.19-6.48-0.08-9.75-0.64
				c-13.96-2.391-27.27-10.101-27.27-10.101l2.11-107.58c0,0,11.34-9.81,25.16-7.53c0.21,0.03,0.43,0.07,0.64,0.11
				c14.11,2.7,21.01,7.51,21.01,7.51L253.577,417.783z"/>
			<path style="fill:#05A19D;" d="M253.577,417.783c0,0-6.25,1.979-23,2.99c-3.18,0.19-6.48-0.08-9.75-0.64v-125.21
				c0.21,0.03,0.43,0.07,0.64,0.11c14.11,2.7,21.01,7.51,21.01,7.51L253.577,417.783z"/>
			<path style="fill:#D3FFFF;" d="M351.327,264.783c0,0-0.39,1.15-1.23,3.11c-3.75,8.89-16.47,34.56-42.27,46.64
				c-18.21,8.53-33.26,10.95-42.7,11.48c-2.53,0.15-4.66,0.15-6.34,0.1c-2.89-0.08-4.46-0.33-4.46-0.33s-9.38-15-9.57-29
				c-0.02-1.36,0.06-2.62,0.22-3.79c1.4-10.9,9.35-13.93,9.35-13.93s13,6.47,40.25-1.53s40-21.25,40-21.25s5-2.75,10.75,0
				S351.327,264.783,351.327,264.783z"/>
			<path style="fill:#A3FFFF;" d="M358.144,270.186c-4,0.27-24.13-9.24-29.82-13.23c-2.02-1.42-2.18-3.24-1.46-5.05
				c1.29-3.29,5.49-6.54,6.78-7.29l6.75-3.99c0.3,0.09,0.6,0.18,0.91,0.28c3.35,1.04,7.5,2.34,11.03,4.01
				c3.63,1.71,6.59,3.79,7.31,6.32C361.144,256.456,362.144,269.916,358.144,270.186z"/>
			<path style="opacity:0.3;fill:#6CBBE6;" d="M358.144,270.186c-4,0.27-24.13-9.24-29.82-13.23c-2.02-1.42-2.18-3.24-1.46-5.05
				c1.11,0.81,2.64,2.06,4.76,3.98c6.54,5.91,20.66,4.96,22-0.91c0.94-4.11-0.4-8.06-1.29-10.06c3.63,1.71,6.59,3.79,7.31,6.32
				C361.144,256.456,362.144,269.916,358.144,270.186z"/>
			<path style="fill:#D3FFFF;" d="M276.577,411.783c0,0-0.35,0.23-1,0.63c-2.18,1.35-7.74,4.58-14.49,6.98
				c-8.73,3.109-13.51,0-13.51,0s-19.75-70.86-19.86-73.36c-0.11-2.5,1.86-6.25,4.86-13.25c0,0,8.5-31.25,9.9-36
				c0.36-1.24,1.3-2.54,2.5-3.79c3.4-3.56,8.85-6.71,8.85-6.71s2.87,7.99,5.91,17.01c1.72,5.08,3.49,10.49,4.84,14.99
				c0.69,2.31,0.81,4.93,0.55,7.73c-1.13,12.37-9.66,28.23-9.05,35.77C256.827,371.033,276.577,411.783,276.577,411.783z"/>
			<path style="fill:#B6E1ED;" d="M350.097,267.893c-3.75,8.89-16.47,34.56-42.27,46.64c-18.21,8.53-33.26,10.95-42.7,11.48
				c-1.13,12.37-9.66,28.23-9.05,35.77c0.75,9.25,20.5,50,20.5,50s-0.35,0.23-1,0.63c-7.9-1.53-14.49-2.89-14.49-2.89
				s-4.01-19.68-8.94-26.79c-4.93-7.11-12.57-17.95-12.57-17.95s11.67-17.35,15.33-25.67c1.99-4.51,3.19-9.44,3.88-13
				c0.58-3.01,0.79-5.05,0.79-5.05l-2.24-18.61c0,0,0.86,0.33,2.4,0.84c9.34,3.05,43.85,12.37,64.75-8.37
				c24.34-24.16,23.04-28.64,23.04-28.64L350.097,267.893z"/>
			<path style="fill:#D3FFFF;" d="M207.137,418.783c0,0-4.69,1.431-12.34-0.09c-0.03-0.011-0.05-0.011-0.05-0.011
				c-1.38-0.279-2.86-0.649-4.43-1.149c-10.25-3.25-20.49-5.25-20.49-5.25c20-36.75,15.25-56.25,11.25-72.5s-0.25-15.25,2.83-30.76
				c0.5-2.51,0.69-4.91,0.66-7.19c-0.12-11.81-6.15-20.05-6.15-20.05l3.2-2.72c0,0,5.21,2.47,8.7,5.82
				c3.5,3.34,9.48,20.26,14.01,29.9c4.53,9.64,11,21.18,12.77,29.25C218.867,352.103,207.137,418.783,207.137,418.783z"/>
			<path style="fill:#B6E1ED;" d="M207.137,418.783c0,0-4.69,1.431-12.34-0.09c-0.03-0.011-0.05-0.011-0.05-0.011
				s6.16-30.229,2.54-32.549c-3.62-2.31-7.97,0-7.97,0s1.59-7.35,5.43-10.04c3.83-2.68,4.99,0,4.99,0s2.84-1.64,4.59-5.86
				c1.75-4.21,4.08-23.61,4.08-23.61s-16.83-22.84-20.83-28.07c-4-5.22,0-11.56,0-11.56s-1.28-2.08-3.01-5.16
				c-0.12-11.81-6.15-20.05-6.15-20.05l3.2-2.72c0,0,5.21,2.47,8.7,5.82c3.5,3.34,9.48,20.26,14.01,29.9
				c4.53,9.64,11,21.18,12.77,29.25C218.867,352.103,207.137,418.783,207.137,418.783z"/>
			<path style="fill:#D3FFFF;" d="M194.747,399.033c-1.84,5.25-4.43,5-4.43,5c-4.66-1.37-9.37-3.04-13.93-5.14
				c-18.69-8.55-34.96-24.11-35.56-54.86c-0.74-37.93,40.09-64.52,40.25-64.52h0.01c0,0.01-0.01,0.01-0.01,0.01l-2.66,2.26
				c0,0,8.58,11.73,5.49,27.24c-2.27,11.43-4.9,13.89-4.53,20.9c0,0.01,0,0.03,0.01,0.04c0.12,2.24,0.55,4.95,1.39,8.55
				c0.079,0.34,0.16,0.69,0.25,1.04c-0.03,0.02-0.06,0.04-0.1,0.06c-3.51,2.28-12.27,9.49-9.85,23.17
				c1.36,7.72,6.44,13.42,11.59,17.36c2.94,2.24,5.9,3.92,8.2,5.04v0.01c0.01,0,0.01,0,0.01,0c2.53,1.25,4.25,1.84,4.25,1.84
				S196.577,393.783,194.747,399.033z"/>
			<path style="fill:#87D0E0;" d="M239.58,276.283c1.747-2.75,15.247,1,16.997,2.25c1.75,1.25,0.25,17-2.25,18.25
				c-2.5,1.25-8.75,1.75-8,2.75s4.422,5.25,4.086,7c-0.336,1.75-21.556,40-22.696,39.5s7.61-46.5,9.11-55.25
				S239.58,276.283,239.58,276.283z"/>
			<path style="fill:#87D0E0;" d="M217.096,344.033c0-6-11.519-36.5-15.519-46.75s-8.573-18.795-8.037-23.272
				c0,0-17.463,4.964-15.963,10.868s15,21.654,15,21.654s-3.5,3,0,8.5S217.096,344.033,217.096,344.033z"/>
			<g>
				<path style="fill:#05918E;" d="M239.956,281.783c0.13,10.5-2.13,19.5-4.8,20.55c-2.67,1.05-12.83-5.05-17.89-5.05
					c-5.07,0-13.44,6.5-15.44,4.75c-0.56-0.48-1.51-2.01-2.61-4.12c-2.86-5.46-6.64-14.82-6.64-19.88c0-1.44,0.26-2.63,0.77-3.65
					c1.74-3.54,6.34-4.97,12.77-7.08c-0.01,2.28-0.16,4.12-0.36,5.59c-0.52,3.81-1.43,5.14-1.43,5.14s5.71,8.9,9.97,13.33
					c1.59,1.66,2.97,2.69,3.789,2.42c0.34-0.11,0.73-0.39,1.17-0.79c3.46-3.17,9.49-14.21,9.49-14.21c-0.25-1.15-0.44-2.33-0.6-3.5
					c-0.3-2.17-0.46-4.35-0.53-6.39C234.477,271.263,239.847,272.603,239.956,281.783z"/>
			</g>
			<path style="opacity:0.5;fill:#03615F;" d="M205.757,272.893c-5.21,0.35-9.8,1.04-12.41,1.49c1.74-3.54,6.34-4.97,12.77-7.08
				C206.106,269.583,205.956,271.423,205.757,272.893z"/>
			<path style="opacity:0.5;fill:#03615F;" d="M239.956,281.783c0.13,10.5-2.13,19.5-4.8,20.55c-2.67,1.05-12.83-5.05-17.89-5.05
				c-5.07,0-13.44,6.5-15.44,4.75c-0.56-0.48-1.51-2.01-2.61-4.12c2.84-0.32,8.24-7.18,15.08-6.55c1.59,1.66,2.97,2.69,3.789,2.42
				c0.34-0.11,0.73-0.39,1.17-0.79c8.74,3.31,22.25-3.2,13.97-13.93c-1.24-1.61-2.99-2.84-5.08-3.78c-0.3-2.17-0.46-4.35-0.53-6.39
				C234.477,271.263,239.847,272.603,239.956,281.783z"/>
			<g>
				<path style="fill:#D1377D;" d="M224.854,306.99c0,0.908-0.736,1.644-1.644,1.644c-0.908,0-1.644-0.736-1.644-1.644
					c0-0.908,0.736-1.644,1.644-1.644C224.119,305.346,224.854,306.082,224.854,306.99z"/>
				<path style="fill:#D1377D;" d="M224.854,320.202c0,0.908-0.736,1.644-1.644,1.644c-0.908,0-1.644-0.736-1.644-1.644
					c0-0.908,0.736-1.644,1.644-1.644C224.119,318.558,224.854,319.293,224.854,320.202z"/>
				<path style="fill:#D1377D;" d="M224.854,333.414c0,0.908-0.736,1.644-1.644,1.644c-0.908,0-1.644-0.736-1.644-1.644
					c0-0.908,0.736-1.644,1.644-1.644C224.119,331.77,224.854,332.505,224.854,333.414z"/>
				<path style="fill:#D1377D;" d="M224.854,346.625c0,0.908-0.736,1.644-1.644,1.644c-0.908,0-1.644-0.736-1.644-1.644
					c0-0.908,0.736-1.644,1.644-1.644C224.119,344.981,224.854,345.717,224.854,346.625z"/>
				<path style="fill:#D1377D;" d="M224.854,359.837c0,0.908-0.736,1.644-1.644,1.644c-0.908,0-1.644-0.736-1.644-1.644
					c0-0.908,0.736-1.644,1.644-1.644C224.119,358.193,224.854,358.929,224.854,359.837z"/>
				<path style="fill:#D1377D;" d="M224.854,373.049c0,0.908-0.736,1.644-1.644,1.644c-0.908,0-1.644-0.736-1.644-1.644
					c0-0.908,0.736-1.644,1.644-1.644C224.119,371.405,224.854,372.141,224.854,373.049z"/>
			</g>
			<path style="fill:#FCB791;" d="M235.126,398.853c-0.19,1.52-1.61,2.09-1.89,2.94c-0.29,0.85,0.57,1.8-0.29,3.32
				c-0.85,1.51-1.8,1.8-1.99,2.75c-0.19,0.94-0.09,1.99-0.66,3.31c-0.57,1.33-4.17,2.94-7.49,2.94c-3.31,0-18.48-3.6-22.65-8.62
				c-4.17-5.03,5.21-16.87,5.21-16.87c0.24-0.12,0.48-0.25,0.71-0.39c2.34-1.36,4.32-3.47,6.21-5.11c2.09-1.8,6.64-1.33,9.67-1.8
				c2.2-0.35,3.75-1.7,4.99-1.89c0.46-0.08,0.88,0.01,1.27,0.37c1.42,1.33,2.08,3.32,1.04,4.93c-1.04,1.61-4.05,2.84-4.05,2.84
				s8.5,0.29,9.07,0.57c0.57,0.29,1.9,2.94,2.09,4.08c0.19,1.13-1.05,1.66-1.52,2.73
				C234.376,396.013,235.317,397.343,235.126,398.853z"/>
			<path style="opacity:0.4;fill:#DE6A5B;" d="M235.126,398.853c-0.19,1.52-1.61,2.09-1.89,2.94c-0.29,0.85,0.57,1.8-0.29,3.32
				c-0.85,1.51-1.8,1.8-1.99,2.75c-0.19,0.94-0.09,1.99-0.66,3.31c-0.57,1.33-4.17,2.94-7.49,2.94c-3.31,0-18.48-3.6-22.65-8.62
				c-4.17-5.03,5.21-16.87,5.21-16.87c0.24-0.12,0.48-0.25,0.71-0.39c1.57,1.93,3.15,4.68,3.15,7.91c0,6.43-1.87,9.96-1.87,9.96
				s1.671,1.62,9.74,3.34c8.07,1.72,10.63-0.97,10.52-1.67c-0.11-0.71,0.55-4.58,1.69-5.46c1.15-0.88,0.71-3.52,0.09-5.55
				c-0.62-2.03,1.32-2.64,1.85-4.4c0.53-1.76-1.06-3.52-1.06-3.52l-11.36-0.89c0,0,6.25-1.49,7.93-4.13
				c1.04-1.64,0.96-3.15,0.19-4.39c0.46-0.08,0.88,0.01,1.27,0.37c1.42,1.33,2.08,3.32,1.04,4.93c-1.04,1.61-4.05,2.84-4.05,2.84
				s8.5,0.29,9.07,0.57c0.57,0.29,1.9,2.94,2.09,4.08c0.19,1.13-1.05,1.66-1.52,2.73
				C234.376,396.013,235.317,397.343,235.126,398.853z"/>
			<path style="fill:#A3FFFF;" d="M201.827,410.033c-1.07,0.69-2.7,1.37-4.49,1.83c-4.07,1.05-8.97,0.91-10.01-3.08
				c-0.97-3.7-2.12-11.75,0.18-19.29c1.28-4.17,3.61-8.18,7.62-11.21c4.29-3.25,10.95,4,12.01,10.5
				C208.197,395.283,205.327,407.783,201.827,410.033z"/>
			<path style="opacity:0.3;fill:#6CBBE6;" d="M185.717,390.073c0,0,0.01,0,0.03-0.02c-0.02,0.24-0.03,0.37-0.03,0.37V390.073z"/>
			<path style="opacity:0.3;fill:#6CBBE6;" d="M201.827,410.033c-1.07,0.69-2.7,1.37-4.49,1.83c1.18-1.77,2.941-4.6,3.18-5.94
				c0.35-2.03,0.88-16.64-4.41-17.26c-3.36-0.39-6.65,0.28-8.6,0.83c1.28-4.17,3.61-8.18,7.62-11.21c4.29-3.25,10.95,4,12.01,10.5
				C208.197,395.283,205.327,407.783,201.827,410.033z"/>
			<path style="fill:#FCB791;" d="M364.356,220.003c0,0-5.45,0.52-7.92,3.4c-2.47,2.88-4.53,6.48-6.59,6.9
				c-2.06,0.41-3.81,1.95-5.2,0c-0.25-0.36-0.48-0.77-0.67-1.24c0-0.01-0.01,0-0.01,0c-0.93-2.1-1.27-5.27-0.09-9.06
				c1.44-4.63,5.04-7,8.13-7.62c3.07-0.61,8.06-1.73,10.35,0.97c0.02,0.02,0.03,0.04,0.05,0.06
				C364.667,216.193,364.356,220.003,364.356,220.003z"/>
			<path style="opacity:0.3;fill:#B84D4D;" d="M364.356,220.003c0,0-5.45,0.52-7.92,3.4c-2.47,2.88-4.53,6.48-6.59,6.9
				c-2.06,0.41-3.81,1.95-5.2,0c-0.25-0.36-0.48-0.77-0.67-1.24c1.59,0.35,0.2-3.2,2.67-7.06c2.82-4.41,5.93-5.34,11.46-6.84
				c2.33-0.63,3.64-1.24,4.25-1.81c0.02,0.02,0.03,0.04,0.05,0.06C364.667,216.193,364.356,220.003,364.356,220.003z"/>
			<path style="fill:#FCB791;" d="M368.686,227.203c0,0.02,0,0.03,0,0.03l-0.57,0.4c-0.01,0.01-0.02,0.01-0.03,0.02
				c-0.78,0.54-1.89,1.3-3.1,2.17l-9.69,6.76c0,0-3.62,1.5-6.02-0.38c-0.26-0.21-0.51-0.46-0.74-0.76
				c-2.29-2.98-0.24-10.5,1.62-13.38c1.85-2.88,7.69-4.63,11.1-4.73c2.98-0.1,5.16,1.86,6.21,3.65c0.16,0.26,0.29,0.52,0.39,0.77
				C368.637,223.603,368.686,226.853,368.686,227.203z"/>
			<path style="opacity:0.3;fill:#B84D4D;" d="M368.686,227.203c-0.19,0.15-0.38,0.29-0.57,0.43c-0.01,0.01-0.02,0.01-0.03,0.02
				c-0.78,0.54-1.89,1.3-3.1,2.17l-9.69,6.76c0,0-3.62,1.5-6.02-0.38c0.79,0.02,1.64-0.14,2.05-0.8c0.89-1.42-0.75-6.12,0.5-9.02
				s8.25-4.98,12.54-4.94c1.59,0.01,2.58-0.09,3.1-0.46c0.16,0.26,0.29,0.52,0.39,0.77
				C368.637,223.603,368.686,226.853,368.686,227.203z"/>
			<path style="fill:#FCB791;" d="M369.407,231.943c-0.93,2.89-5.46,1.24-6.28,1.24c-0.83,0-2.68,1.23-2.58,2.26
				c0.11,1.03,0.42,4.74-3.5,5.05c-1.52,0.12-2.75-0.75-3.48-2.14c-1.16-2.19-1.05-5.67,1.22-8.57c3.71-4.73,5.61-5.8,10.99-5.32
				c0.43,0.04,0.81,0.12,1.15,0.23C370.887,226.013,369.407,231.943,369.407,231.943z"/>
			<path style="fill:#D1377D;" d="M339.657,204.593v15.79c0,3.32-2.69,6-6,6h-33.08c-3.31,0-6-2.68-6-6v-15.79c0-3.31,2.69-6,6-6
				h33.08C336.967,198.593,339.657,201.283,339.657,204.593z"/>
			<path style="fill:#FFFFFF;" d="M339.657,204.593v15.79c0,3.32-2.69,6-6,6h-23.69c0.03-1.78,0.34-3.92,1.19-6.36
				c0.14-0.44,0.31-0.9,0.5-1.36c3.5-8.54,11.83-6.69,13.58-14.31c0.58-2.53,0.38-4.39-0.15-5.76h8.57
				C336.967,198.593,339.657,201.283,339.657,204.593z"/>
			<path style="fill:#B6E1ED;" d="M190.867,385.183v0.01c-0.53-0.14-19.4-5.03-27.29-25.41c-8-20.66,15.8-46.11,15.8-46.11
				s-1.8,5.78,0,16.25c0,0.01,0,0.03,0.01,0.04c0.73,4.27,1.15,6.91,1.39,8.55c0.059,0.43,0.11,0.8,0.15,1.1
				c-3.51,2.28-12.27,9.49-9.85,23.17c1.36,7.72,6.44,13.42,11.59,17.36C185.606,382.383,188.567,384.063,190.867,385.183z"/>
			<path style="fill:#FFFFFF;" d="M317.779,205.271c0,1.204-0.975,2.179-2.179,2.179h-12.679c-1.204,0-2.179-0.975-2.179-2.179l0,0
				c0-1.203,0.975-2.178,2.179-2.178H315.6C316.804,203.093,317.779,204.068,317.779,205.271L317.779,205.271z"/>
			<path style="opacity:0.3;fill:#B84D4D;" d="M369.407,231.943c-0.93,2.89-5.46,1.24-6.28,1.24c-0.83,0-2.68,1.23-2.58,2.26
				c0.11,1.03,0.42,4.74-3.5,5.05c-1.52,0.12-2.75-0.75-3.48-2.14c0.78,0.06,1.8,0.01,2.93-0.32c2.66-0.77,1.83-2.87,2.9-4.75
				c1.08-1.87,3.19-2.35,5.94-2.91c2.44-0.51,3.19-2.62,1.59-5.68C370.887,226.013,369.407,231.943,369.407,231.943z"/>
			<path style="opacity:0.3;fill:#BF236A;" d="M339.657,204.593v15.79c0,3.32-2.69,6-6,6h-33.08c-3.31,0-6-2.68-6-6v-3.55
				c3.55,1.42,9.46,3.2,16.58,3.19c2.83,0,5.87-0.28,9.02-0.99c14.49-3.24,14.68-15.04,13.16-20.44h0.32
				C336.967,198.593,339.657,201.283,339.657,204.593z"/>
		</g>
		<g>
			<g>
				<circle style="fill:#2D5DC2;" cx="194.744" cy="221.117" r="13.667"/>
				<circle style="fill:#2D5DC2;" cx="239.58" cy="221.117" r="13.667"/>
				<path style="fill:#2D5DC2;" d="M207.674,221.117c0,0,4.202-3.167,9.267-3.167c5.064,0,9.914,3.878,9.914,3.878v-3.878
					c0,0-2.371-3.232-9.267-3.232s-9.913,2.909-9.913,2.909V221.117z"/>
			</g>
			<path style="fill:#DE6B6B;" d="M218.091,230.975c2.259,0,3.444,0.008,3.444,1.839c0,1.831-1.285,2.909-3.444,2.909
				c-2.159,0-3.452-0.546-3.452-2.374C214.639,231.521,215.883,230.975,218.091,230.975z"/>
			<path style="fill:#8A3857;" d="M228.747,245.963c0,2.56,0.03,5.3-1.03,7.5c-1.76-1.76-5.67-5.02-10.45-5.02
				c-4.47,0-7.79,2.24-9.46,3.67c-0.67-2.01-0.67-4.22-0.67-6.04c0-1.29,0.38-2.27,1.06-3.01c1.77-1.94,5.54-2.27,9.82-2.27
				c3.01,0,8.04-0.21,9.96,2.5C228.467,243.973,228.747,244.853,228.747,245.963z"/>
			<path style="fill:#FFFFFF;" d="M227.977,243.293c-2.15,0.61-5.34,1.16-9.95,1.16c-5.16,0-8.14-0.68-9.83-1.39
				c1.77-1.94,5.54-2.27,9.82-2.27C221.027,240.793,226.057,240.583,227.977,243.293z"/>
			<path style="fill:#FC9191;" d="M227.717,253.463c-1.21,2.53-3.87,4.35-9.7,4.35c-6.59,0-9.19-2.61-10.21-5.7
				c1.67-1.43,4.99-3.67,9.46-3.67C222.047,248.443,225.957,251.703,227.717,253.463z"/>
			<g>
				<circle style="fill:#8CE6E4;" cx="194.744" cy="221.117" r="10.833"/>
				<circle style="fill:#8CE6E4;" cx="239.58" cy="221.117" r="10.833"/>
			</g>
			<path style="fill:#41335E;" d="M190.433,227.462c-0.491,0-0.919-0.362-0.989-0.862c-0.033-0.233-0.767-5.737,1.762-8.644
				c1.017-1.169,2.389-1.762,4.077-1.762c1.69,0,3.041,0.594,4.014,1.765c2.426,2.918,1.431,8.451,1.387,8.686
				c-0.101,0.542-0.62,0.895-1.165,0.8c-0.542-0.101-0.901-0.622-0.801-1.165c0.247-1.342,0.556-5.223-0.96-7.044
				c-0.583-0.7-1.393-1.041-2.475-1.041c-1.099,0-1.939,0.352-2.568,1.074c-1.608,1.848-1.476,5.719-1.29,7.055
				c0.077,0.547-0.305,1.052-0.852,1.128C190.525,227.459,190.479,227.462,190.433,227.462z"/>
			<path style="fill:#41335E;" d="M235.269,227.462c-0.491,0-0.919-0.362-0.989-0.862c-0.033-0.233-0.767-5.737,1.762-8.644
				c1.017-1.169,2.389-1.762,4.077-1.762c1.69,0,3.041,0.594,4.014,1.765c2.426,2.918,1.431,8.451,1.387,8.686
				c-0.101,0.542-0.622,0.895-1.165,0.8c-0.543-0.101-0.901-0.622-0.801-1.165c0.247-1.342,0.556-5.223-0.96-7.044
				c-0.584-0.7-1.393-1.041-2.475-1.041c-1.099,0-1.939,0.352-2.568,1.074c-1.608,1.848-1.476,5.719-1.29,7.055
				c0.077,0.547-0.305,1.052-0.852,1.128C235.361,227.459,235.315,227.462,235.269,227.462z"/>
		</g>
	</g>
	<rect y="412.36" style="fill:#5582DE;" width="500" height="87.64"/>
	<g>
		<path style="fill:#FF9B96;" d="M95.061,131.957v142.097c0,0.643-0.514,1.169-1.169,1.169H61.95c-0.643,0-1.169-0.526-1.169-1.169
			V131.957c0-0.643,0.526-1.169,1.169-1.169h31.942C94.547,130.788,95.061,131.314,95.061,131.957z"/>
		<path style="opacity:0.2;fill:#4A0E3A;" d="M60.781,143.189c1.403-2.349,3.273-4.149,5.786-4.769
			c6.813-1.671,19.74,2.91,28.494,8.356v127.278c0,0.643-0.514,1.169-1.169,1.169H61.95c-0.643,0-1.169-0.526-1.169-1.169v-8.766
			c8.053,1.355,20.161,1.542,20.161-9.654c0-16.76,0-88.124,0-88.124s-12.108,1.028-20.161-2.314V143.189z"/>
		<path style="fill:#BF236A;" d="M127.4,113.257c0,27.325-22.148,49.485-49.474,49.485c-11.828,0-22.697-4.149-31.206-11.091
			c-11.15-9.07-18.279-22.896-18.279-38.394c0-26.952,21.552-48.866,48.363-49.462c0.374-0.011,0.748-0.011,1.122-0.011
			C105.252,63.783,127.4,85.931,127.4,113.257z"/>
		<circle style="fill:#FFFFFF;" cx="77.923" cy="113.261" r="44.887"/>
		<path style="fill:#FF9B96;" d="M88.148,148.323c0,0.646-0.384,1.169-0.858,1.169H68.556c-0.474,0-0.857-0.523-0.857-1.169V81.704
			c0-0.645,0.384-1.169,0.857-1.169H87.29c0.474,0,0.858,0.523,0.858,1.169V148.323z"/>
		<path style="fill:#FF9B96;" d="M44.613,125.238c-0.646,0-1.169-0.384-1.169-0.858v-18.734c0-0.474,0.523-0.857,1.169-0.857h66.619
			c0.646,0,1.169,0.384,1.169,0.857v18.734c0,0.474-0.523,0.858-1.169,0.858H44.613z"/>
		<path style="fill:#ED396A;" d="M111.447,184.387v12.471c0,0.643-0.526,1.169-1.169,1.169H44.617c-0.654,0-1.168-0.525-1.168-1.169
			v-12.471c0-0.643,0.514-1.169,1.168-1.169h65.661C110.921,183.218,111.447,183.745,111.447,184.387z"/>
		<path style="opacity:0.2;fill:#E6FFFF;" d="M101.185,187.796c0,1.384-1.122,2.505-2.505,2.505H49.171
			c-1.384,0-2.505-1.122-2.505-2.505l0,0c0-1.384,1.122-2.505,2.505-2.505H98.68C100.063,185.29,101.185,186.412,101.185,187.796
			L101.185,187.796z"/>
		<path style="opacity:0.2;fill:#E6FFFF;" d="M101.185,237.583c0,1.384-1.122,2.505-2.505,2.505H49.171
			c-1.384,0-2.505-1.121-2.505-2.505l0,0c0-1.384,1.122-2.505,2.505-2.505H98.68C100.063,235.078,101.185,236.199,101.185,237.583
			L101.185,237.583z"/>
		<path style="opacity:0.2;fill:#4A0E3A;" d="M111.447,184.387v12.471c0,0.643-0.526,1.169-1.169,1.169H44.617
			c-0.654,0-1.168-0.525-1.168-1.169v-4.944c1.508,0.444,3.214,0.725,5.131,0.725h44.249c12.365,0,13.523-4.079,12.716-9.42h4.734
			C110.921,183.218,111.447,183.745,111.447,184.387z"/>
		<path style="fill:#ED396A;" d="M111.447,234.036v12.459c0,0.654-0.526,1.169-1.169,1.169H44.617c-0.654,0-1.168-0.514-1.168-1.169
			v-12.459c0-0.655,0.514-1.169,1.168-1.169h65.661C110.921,232.867,111.447,233.381,111.447,234.036z"/>
		<path style="opacity:0.2;fill:#4A0E3A;" d="M111.447,234.036v12.459c0,0.654-0.526,1.169-1.169,1.169H44.617
			c-0.654,0-1.168-0.514-1.168-1.169v-3.717c0.993,0.198,2.081,0.304,3.272,0.304h50.958c7.001,0,7.726-5.973,7.364-10.215h5.236
			C110.921,232.867,111.447,233.381,111.447,234.036z"/>
		<path style="opacity:0.2;fill:#4A0E3A;" d="M127.4,113.257c0,27.325-22.148,49.485-49.474,49.485
			c-11.828,0-22.697-4.149-31.206-11.091c10.554-2.068,22.755-8.836,32.468-26.414c14.959-27.057,5.271-49.766-2.385-61.442
			c0.374-0.011,0.748-0.011,1.122-0.011C105.252,63.783,127.4,85.931,127.4,113.257z"/>
	</g>
	<g>
		<path style="fill:#7C6C9C;" d="M464.377,456.126c0,0.553-0.448,1-1,1H329.814c-0.552,0-1-0.447-1-1v-35.81c0-0.552,0.448-1,1-1
			h133.563c0.552,0,1,0.448,1,1V456.126z"/>
		<path style="fill:#41335E;" d="M464.377,456.567c0,0.309-0.448,0.559-1,0.559H329.814c-0.552,0-1-0.25-1-0.559v-20.038
			c0-0.31,0.448-0.56,1-0.56h133.563c0.552,0,1,0.25,1,0.56V456.567z"/>
		<g>
			<g>
				<path style="fill:#7C6C9C;" d="M434.362,395.348c-0.327,1.648-1.552,2.984-2.735,2.984H325.212
					c-1.184,0-2.453-1.336-2.834-2.984l-21.637-93.543c-0.381-1.648,0.641-2.985,2.281-2.985h147.506
					c1.641,0,2.707,1.337,2.379,2.985L434.362,395.348z"/>
				<path style="fill:#7C6C9C;" d="M434.362,395.348c-0.327,1.648-1.552,2.984-2.735,2.984H325.212
					c-1.184,0-2.453-1.336-2.834-2.984l-21.637-93.543c-0.381-1.648,0.641-2.985,2.281-2.985h147.506
					c1.641,0,2.707,1.337,2.379,2.985L434.362,395.348z"/>
			</g>
			<path style="fill:#7C6C9C;" d="M299.807,308.856c0,0-1.416-7.672,1.562-9.431c2.978-1.758,7.818,3.877,7.818,3.877
				s0.787,2.505-1.527,4.61C305.345,310.019,299.807,308.856,299.807,308.856z"/>
			<path style="fill:#7C6C9C;" d="M453.501,308.089c0,0,0.369-8.043-1.417-8.759c-1.786-0.716-5.006,2.169-5.533,3.973
				c-0.526,1.804,1.784,3.909,3.523,4.786C451.814,308.966,453.501,308.089,453.501,308.089z"/>
			<g>
				<path style="fill:#41335E;" d="M453.443,308.853l-18.73,94.03c-0.33,1.66-1.56,3-2.76,3h-107.44c-1.19,0-2.48-1.34-2.86-3
					l-1.84-7.93l-20.01-86.1c-0.38-1.65,0.65-3,2.31-3h148.93C452.693,305.853,453.773,307.203,453.443,308.853z"/>
				<path style="fill:#41335E;" d="M453.443,308.853l-18.73,94.03c-0.33,1.66-1.56,3-2.76,3h-107.44c-1.19,0-2.48-1.34-2.86-3
					l-1.84-7.93l-20.01-86.1c-0.38-1.65,0.65-3,2.31-3h148.93C452.693,305.853,453.773,307.203,453.443,308.853z"/>
			</g>
			<path style="opacity:0.3;fill:#0E0D38;" d="M453.443,308.853l-18.73,94.03c-0.33,1.66-1.56,3-2.76,3h-107.44
				c-1.19,0-2.48-1.34-2.86-3l-1.84-7.93l85.58-89.1h45.65C452.693,305.853,453.773,307.203,453.443,308.853z"/>
			<path style="fill:#41335E;" d="M402.602,421.93c0,6.026-4.886,10.912-10.913,10.912h-28.281c-6.027,0-10.913-4.886-10.913-10.912
				l0,0c0-6.027,4.886-10.913,10.913-10.913h28.281C397.716,411.017,402.602,415.902,402.602,421.93L402.602,421.93z"/>
			<path style="fill:#8164A6;" d="M391.993,389.053v18.88c0,7.73-6.26,14-14,14h-0.89c-4.58,0-8.64-2.2-11.19-5.59
				c-1.76-2.34-2.81-5.251-2.81-8.411v-18.88c0-2.99,0.94-5.76,2.53-8.03c2.53-3.61,6.73-5.97,11.47-5.97h0.89
				C385.733,375.053,391.993,381.313,391.993,389.053z"/>
			<path style="opacity:0.3;fill:#0E0D38;" d="M391.993,389.053v18.88c0,7.73-6.26,14-14,14h-0.89c-4.58,0-8.64-2.2-11.19-5.59
				c6.02-0.511,15.09-2.59,14.87-10.461c-0.29-10.36-3.96-23.9-15.15-24.86c2.53-3.61,6.73-5.97,11.47-5.97h0.89
				C385.733,375.053,391.993,381.313,391.993,389.053z"/>
		</g>
		<g>
			<path style="fill:#41335E;" d="M449.208,418.478v5.061c0,3.869-3.13,7-7,7h-20.73c-3.87,0-7-3.131-7-7v-5.061c0-3.87,3.13-7,7-7
				h20.73c1.23,0,2.39,0.32,3.4,0.88C447.758,413.548,449.208,415.838,449.208,418.478z"/>
			<path style="fill:#8164A6;" d="M438.448,354.769v58.4c0,3.65-2.96,6.61-6.61,6.61c-1.82,0-3.48-0.739-4.67-1.94
				c-1.2-1.189-1.94-2.85-1.94-4.669v-58.4c0-1.81,0.73-3.45,1.91-4.64c1.2-1.22,2.86-1.97,4.7-1.97c1.59,0,3.05,0.56,4.19,1.5
				c0.17,0.14,0.33,0.29,0.48,0.44C437.708,351.289,438.448,352.948,438.448,354.769z"/>
			<path style="opacity:0.3;fill:#0E0D38;" d="M438.448,354.769v58.4c0,3.65-2.96,6.61-6.61,6.61c-1.82,0-3.48-0.739-4.67-1.94
				c-1.2-1.189-1.94-2.85-1.94-4.669v-0.36c2.22,0.61,4.78,0.65,6.61-1.33c3.95-4.26,1.05-32.08,0-41.16
				c-0.7-6.05-4.28-7.4-6.61-7.63v-7.92c0-1.81,0.73-3.45,1.91-4.64c1.2-1.22,2.86-1.97,4.7-1.97c1.59,0,3.05,0.56,4.19,1.5
				c0.17,0.14,0.33,0.29,0.48,0.44C437.708,351.289,438.448,352.948,438.448,354.769z"/>
			<path style="fill:#8164A6;" d="M477.028,322.568v32.12c0,1.65-1.34,3-3,3h-84.37c-1.66,0-3-1.35-3-3v-32.12c0-1.66,1.34-3,3-3
				h84.37C475.689,319.568,477.028,320.908,477.028,322.568z"/>
			<path style="opacity:0.3;fill:#0E0D38;" d="M477.028,322.568v32.12c0,1.65-1.34,3-3,3h-84.37c-1.66,0-3-1.35-3-3v-7.85
				c6.2,0.96,24.41,3.53,40.48,3.29c3.08-0.04,6.07-0.19,8.89-0.47c3.24-0.32,6.24-0.81,8.86-1.53
				c16.74-4.6,24.62-17.04,23.59-28.56h5.55C475.689,319.568,477.028,320.908,477.028,322.568z"/>
			<path style="opacity:0.3;fill:#0E0D38;" d="M449.208,418.478v5.061c0,3.869-3.13,7-7,7h-20.73c-3.87,0-7-3.131-7-7
				c0,0,10.74,0.859,19.07,1.529c7.41,0.6,12.45-4.35,12.06-12.71C447.758,413.548,449.208,415.838,449.208,418.478z"/>
		</g>
		<path style="fill:#FFF1BA;" d="M469.477,324.633v27.99c0,0.48-0.39,0.87-0.87,0.87h-73.53c-0.48,0-0.87-0.39-0.87-0.87v-27.99
			c0-0.48,0.39-0.87,0.87-0.87h73.53C469.086,323.763,469.477,324.153,469.477,324.633z"/>
		<path style="fill:#FFFDF5;" d="M423.767,323.763l-25.52,29.73h-3.17c-0.48,0-0.87-0.39-0.87-0.87v-20.28l7.39-8.58H423.767z"/>
		<polygon style="fill:#FFFDF5;" points="421.847,353.493 444.296,323.763 436.396,323.763 410.667,353.493 		"/>
		<path style="fill:#FFFDF5;" d="M439.376,353.493l17.86-29.73h11.37c0.48,0,0.87,0.39,0.87,0.87v2.05l-11.89,26.81H439.376z"/>
	</g>
	<g>
		<path style="fill:#21184A;" d="M70.465,405.987h56.626c0,0-1.016,6.817,0.51,15.304c1.526,8.487,3.775,11.427,3.775,11.427
			l-65.4-0.935c0,0,3.265-4.064,4.489-10.492C71.689,414.863,70.465,405.987,70.465,405.987z"/>
		<g>
			<g>
				<path style="fill:#FFFFFF;" d="M98.071,408.921v38c0,0.551-0.48,1-1.08,1h-19.37c-0.6,0-1.08-0.449-1.08-1v-38
					c0-0.55,0.48-1,1.08-1h19.37C97.591,407.921,98.071,408.371,98.071,408.921z"/>
				<path style="fill:#5852C3;" d="M98.071,408.921v12.21c-2.5,2.539-5.21,4.34-7.87,5.6c-5.64,2.68-11.04,2.97-13.66,2.91v-20.72
					c0-0.55,0.48-1,1.08-1h19.37C97.591,407.921,98.071,408.371,98.071,408.921z"/>
				<path style="fill:#FFFFFF;" d="M95.791,413.883c0,1.119-0.907,2.025-2.025,2.025H80.788c-1.119,0-2.026-0.907-2.026-2.025l0,0
					c0-1.119,0.907-2.026,2.026-2.026h12.979C94.885,411.857,95.791,412.764,95.791,413.883L95.791,413.883z"/>
			</g>
			<path style="opacity:0.3;fill:#341D82;" d="M98.071,408.921v38c0,0.551-0.48,1-1.08,1h-19.37c-0.6,0-1.08-0.449-1.08-1v-1.1
				c2.01-0.58,4.48-2.09,7.38-5.28c3.49-3.829,5.33-8.95,6.28-13.81c0.81-4.11,0.98-8.04,0.94-10.82c-0.01-2.48-0.18-4.05-0.18-4.05
				l-14.42-2.47v-0.47c0-0.55,0.48-1,1.08-1h19.37C97.591,407.921,98.071,408.371,98.071,408.921z"/>
			<path style="opacity:0.3;fill:#FFFFFF;" d="M83.265,440.123c0,1.581-1.282,2.862-2.862,2.862l0,0
				c-1.581,0-2.863-1.281-2.863-2.862v-26.778c0-1.581,1.282-2.862,2.863-2.862l0,0c1.581,0,2.862,1.282,2.862,2.862V440.123z"/>
		</g>
		<g>
			<g>
				<path style="fill:#FFFFFF;" d="M122.408,408.921v38c0,0.551-0.48,1-1.08,1h-19.37c-0.6,0-1.08-0.449-1.08-1v-38
					c0-0.55,0.48-1,1.08-1h19.37C121.928,407.921,122.408,408.371,122.408,408.921z"/>
				<path style="fill:#5852C3;" d="M122.408,408.921v12.21c-2.5,2.539-5.21,4.34-7.87,5.6c-5.64,2.68-11.04,2.97-13.66,2.91v-20.72
					c0-0.55,0.48-1,1.08-1h19.37C121.928,407.921,122.408,408.371,122.408,408.921z"/>
				<path style="fill:#FFFFFF;" d="M120.128,413.883c0,1.119-0.907,2.025-2.025,2.025h-12.979c-1.119,0-2.026-0.907-2.026-2.025l0,0
					c0-1.119,0.907-2.026,2.026-2.026h12.979C119.221,411.857,120.128,412.764,120.128,413.883L120.128,413.883z"/>
			</g>
			<path style="opacity:0.3;fill:#341D82;" d="M122.408,408.921v38c0,0.551-0.48,1-1.08,1h-19.37c-0.6,0-1.08-0.449-1.08-1v-1.1
				c2.01-0.58,4.48-2.09,7.38-5.28c3.49-3.829,5.33-8.95,6.28-13.81c0.81-4.11,0.98-8.04,0.94-10.82c-0.01-2.48-0.18-4.05-0.18-4.05
				l-14.42-2.47v-0.47c0-0.55,0.48-1,1.08-1h19.37C121.928,407.921,122.408,408.371,122.408,408.921z"/>
			<path style="opacity:0.3;fill:#FFFFFF;" d="M107.602,440.123c0,1.581-1.282,2.862-2.862,2.862l0,0
				c-1.581,0-2.863-1.281-2.863-2.862v-26.778c0-1.581,1.282-2.862,2.863-2.862l0,0c1.58,0,2.862,1.282,2.862,2.862V440.123z"/>
		</g>
		<path style="fill:#A4E3FD;" d="M134.189,431.401v18.77c0,0.551-0.45,1-1,1h-67.85c-0.39,0-0.72-0.209-0.88-0.529
			c-0.08-0.141-0.12-0.301-0.12-0.471v-18.77c0-0.551,0.44-1,1-1h67.85C133.739,430.401,134.189,430.851,134.189,431.401z"/>
		<path style="fill:#5C97D6;" d="M69.546,404.559c0,0,1.53,5.816,0,15.304c-1.53,9.488-4.711,10.681-4.711,10.681h3.487
			c0,0,3.469-3.163,4.081-12.992c0.612-9.83,0-13.707,0-13.707L69.546,404.559z"/>
		<path style="fill:#5C97D6;" d="M128.538,404.559c0,0-1.53,5.816,0,15.304c1.53,9.488,4.711,10.681,4.711,10.681h-3.487
			c0,0-3.469-3.163-4.081-12.992c-0.612-9.83,0-13.707,0-13.707L128.538,404.559z"/>
		<path style="fill:#21184A;" d="M70.465,360.804h56.626c0,0-1.016,6.817,0.51,15.304c1.526,8.487,3.775,11.427,3.775,11.427
			l-65.4-0.935c0,0,3.265-4.064,4.489-10.492C71.689,369.68,70.465,360.804,70.465,360.804z"/>
		<g>
			<g>
				<path style="fill:#FFFFFF;" d="M98.071,363.921v38c0,0.55-0.48,1-1.08,1h-19.37c-0.6,0-1.08-0.45-1.08-1v-38
					c0-0.55,0.48-1,1.08-1h19.37C97.591,362.921,98.071,363.371,98.071,363.921z"/>
				<path style="fill:#5852C3;" d="M98.071,363.921v12.21c-2.5,2.54-5.21,4.34-7.87,5.6c-5.64,2.68-11.04,2.97-13.66,2.91v-20.72
					c0-0.55,0.48-1,1.08-1h19.37C97.591,362.921,98.071,363.371,98.071,363.921z"/>
				<path style="fill:#FFFFFF;" d="M95.791,368.883c0,1.119-0.907,2.025-2.025,2.025H80.788c-1.119,0-2.026-0.907-2.026-2.025l0,0
					c0-1.119,0.907-2.026,2.026-2.026h12.979C94.885,366.857,95.791,367.764,95.791,368.883L95.791,368.883z"/>
			</g>
			<path style="opacity:0.3;fill:#341D82;" d="M98.071,363.921v38c0,0.55-0.48,1-1.08,1h-19.37c-0.6,0-1.08-0.45-1.08-1v-1.1
				c2.01-0.58,4.48-2.09,7.38-5.28c3.49-3.83,5.33-8.95,6.28-13.81c0.81-4.11,0.98-8.04,0.94-10.82c-0.01-2.48-0.18-4.05-0.18-4.05
				l-14.42-2.47v-0.47c0-0.55,0.48-1,1.08-1h19.37C97.591,362.921,98.071,363.371,98.071,363.921z"/>
			<path style="opacity:0.3;fill:#FFFFFF;" d="M83.265,395.123c0,1.581-1.282,2.862-2.862,2.862l0,0
				c-1.581,0-2.863-1.282-2.863-2.862v-26.778c0-1.581,1.282-2.862,2.863-2.862l0,0c1.581,0,2.862,1.282,2.862,2.862V395.123z"/>
		</g>
		<g>
			<g>
				<path style="fill:#FFFFFF;" d="M122.408,363.921v38c0,0.55-0.48,1-1.08,1h-19.37c-0.6,0-1.08-0.45-1.08-1v-38
					c0-0.55,0.48-1,1.08-1h19.37C121.928,362.921,122.408,363.371,122.408,363.921z"/>
				<path style="fill:#5852C3;" d="M122.408,363.921v12.21c-2.5,2.54-5.21,4.34-7.87,5.6c-5.64,2.68-11.04,2.97-13.66,2.91v-20.72
					c0-0.55,0.48-1,1.08-1h19.37C121.928,362.921,122.408,363.371,122.408,363.921z"/>
				<path style="fill:#FFFFFF;" d="M120.128,368.883c0,1.119-0.907,2.025-2.025,2.025h-12.979c-1.119,0-2.026-0.907-2.026-2.025l0,0
					c0-1.119,0.907-2.026,2.026-2.026h12.979C119.221,366.857,120.128,367.764,120.128,368.883L120.128,368.883z"/>
			</g>
			<path style="opacity:0.3;fill:#341D82;" d="M122.408,363.921v38c0,0.55-0.48,1-1.08,1h-19.37c-0.6,0-1.08-0.45-1.08-1v-1.1
				c2.01-0.58,4.48-2.09,7.38-5.28c3.49-3.83,5.33-8.95,6.28-13.81c0.81-4.11,0.98-8.04,0.94-10.82c-0.01-2.48-0.18-4.05-0.18-4.05
				l-14.42-2.47v-0.47c0-0.55,0.48-1,1.08-1h19.37C121.928,362.921,122.408,363.371,122.408,363.921z"/>
			<path style="opacity:0.3;fill:#FFFFFF;" d="M107.602,395.123c0,1.581-1.282,2.862-2.862,2.862l0,0
				c-1.581,0-2.863-1.282-2.863-2.862v-26.778c0-1.581,1.282-2.862,2.863-2.862l0,0c1.58,0,2.862,1.282,2.862,2.862V395.123z"/>
		</g>
		<path style="fill:#A4E3FD;" d="M134.189,386.221v18.77c0,0.55-0.45,1-1,1h-67.85c-0.28,0-0.53-0.11-0.71-0.29
			c-0.18-0.19-0.29-0.43-0.29-0.71v-18.77c0-0.55,0.44-1,1-1h67.85C133.739,385.221,134.189,385.671,134.189,386.221z"/>
		<path style="fill:#5C97D6;" d="M69.546,359.375c0,0,1.53,5.816,0,15.304c-1.53,9.488-4.711,10.68-4.711,10.68h3.487
			c0,0,3.469-3.163,4.081-12.992c0.612-9.83,0-13.707,0-13.707L69.546,359.375z"/>
		<path style="fill:#5C97D6;" d="M128.538,359.375c0,0-1.53,5.816,0,15.304c1.53,9.488,4.711,10.68,4.711,10.68h-3.487
			c0,0-3.469-3.163-4.081-12.992c-0.612-9.83,0-13.707,0-13.707L128.538,359.375z"/>
		<path style="fill:#21184A;" d="M70.465,315.621h56.626c0,0-1.016,6.817,0.51,15.304c1.526,8.487,3.775,11.427,3.775,11.427
			l-65.4-0.935c0,0,3.265-4.064,4.489-10.492C71.689,324.497,70.465,315.621,70.465,315.621z"/>
		<g>
			<g>
				<path style="fill:#FFFFFF;" d="M98.071,318.671v38c0,0.55-0.48,1-1.08,1h-19.37c-0.6,0-1.08-0.45-1.08-1v-38
					c0-0.55,0.48-1,1.08-1h19.37C97.591,317.671,98.071,318.121,98.071,318.671z"/>
				<path style="fill:#5852C3;" d="M98.071,318.671v12.21c-2.5,2.54-5.21,4.34-7.87,5.6c-5.64,2.68-11.04,2.97-13.66,2.91v-20.72
					c0-0.55,0.48-1,1.08-1h19.37C97.591,317.671,98.071,318.121,98.071,318.671z"/>
				<path style="fill:#FFFFFF;" d="M95.791,323.633c0,1.119-0.907,2.025-2.025,2.025H80.788c-1.119,0-2.026-0.907-2.026-2.025l0,0
					c0-1.119,0.907-2.026,2.026-2.026h12.979C94.885,321.607,95.791,322.514,95.791,323.633L95.791,323.633z"/>
			</g>
			<path style="opacity:0.3;fill:#341D82;" d="M98.071,318.671v38c0,0.55-0.48,1-1.08,1h-19.37c-0.6,0-1.08-0.45-1.08-1v-1.1
				c2.01-0.58,4.48-2.09,7.38-5.28c3.49-3.83,5.33-8.95,6.28-13.81c0.81-4.11,0.98-8.04,0.94-10.82c-0.01-2.48-0.18-4.05-0.18-4.05
				l-14.42-2.47v-0.47c0-0.55,0.48-1,1.08-1h19.37C97.591,317.671,98.071,318.121,98.071,318.671z"/>
			<path style="opacity:0.3;fill:#FFFFFF;" d="M83.265,349.873c0,1.581-1.282,2.862-2.862,2.862l0,0
				c-1.581,0-2.863-1.282-2.863-2.862v-26.778c0-1.581,1.282-2.862,2.863-2.862l0,0c1.581,0,2.862,1.282,2.862,2.862V349.873z"/>
		</g>
		<g>
			<g>
				<path style="fill:#FFFFFF;" d="M122.408,318.671v38c0,0.55-0.48,1-1.08,1h-19.37c-0.6,0-1.08-0.45-1.08-1v-38
					c0-0.55,0.48-1,1.08-1h19.37C121.928,317.671,122.408,318.121,122.408,318.671z"/>
				<path style="fill:#5852C3;" d="M122.408,318.671v12.21c-2.5,2.54-5.21,4.34-7.87,5.6c-5.64,2.68-11.04,2.97-13.66,2.91v-20.72
					c0-0.55,0.48-1,1.08-1h19.37C121.928,317.671,122.408,318.121,122.408,318.671z"/>
				<path style="fill:#FFFFFF;" d="M120.128,323.633c0,1.119-0.907,2.025-2.025,2.025h-12.979c-1.119,0-2.026-0.907-2.026-2.025l0,0
					c0-1.119,0.907-2.026,2.026-2.026h12.979C119.221,321.607,120.128,322.514,120.128,323.633L120.128,323.633z"/>
			</g>
			<path style="opacity:0.3;fill:#341D82;" d="M122.408,318.671v38c0,0.55-0.48,1-1.08,1h-19.37c-0.6,0-1.08-0.45-1.08-1v-1.1
				c2.01-0.58,4.48-2.09,7.38-5.28c3.49-3.83,5.33-8.95,6.28-13.81c0.81-4.11,0.98-8.04,0.94-10.82c-0.01-2.48-0.18-4.05-0.18-4.05
				l-14.42-2.47v-0.47c0-0.55,0.48-1,1.08-1h19.37C121.928,317.671,122.408,318.121,122.408,318.671z"/>
			<path style="opacity:0.3;fill:#FFFFFF;" d="M107.602,349.873c0,1.581-1.282,2.862-2.862,2.862l0,0
				c-1.581,0-2.863-1.282-2.863-2.862v-26.778c0-1.581,1.282-2.862,2.863-2.862l0,0c1.58,0,2.862,1.282,2.862,2.862V349.873z"/>
		</g>
		<path style="fill:#A4E3FD;" d="M134.189,341.041v18.76c0,0.55-0.45,1-1,1h-67.85c-0.22,0-0.42-0.07-0.58-0.18
			c-0.26-0.19-0.42-0.49-0.42-0.82v-18.76c0-0.56,0.44-1,1-1h67.85C133.739,340.041,134.189,340.481,134.189,341.041z"/>
		<polyline style="fill:#FFFFFF;" points="65.976,341.417 128.602,341.417 65.976,348.815 65.976,341.417 		"/>
		<polyline style="fill:#FFFFFF;" points="65.976,387.535 128.602,387.535 65.976,394.933 65.976,387.535 		"/>
		<polyline style="fill:#FFFFFF;" points="65.976,433.653 128.602,433.653 65.976,441.051 65.976,433.653 		"/>
		<path style="fill:#5C97D6;" d="M69.546,314.192c0,0,1.53,5.816,0,15.304c-1.53,9.488-4.711,10.68-4.711,10.68h3.487
			c0,0,3.469-3.163,4.081-12.992c0.612-9.83,0-13.707,0-13.707L69.546,314.192z"/>
		<path style="fill:#5C97D6;" d="M128.538,314.192c0,0-1.53,5.816,0,15.304c1.53,9.488,4.711,10.68,4.711,10.68h-3.487
			c0,0-3.469-3.163-4.081-12.992c-0.612-9.83,0-13.707,0-13.707L128.538,314.192z"/>
		<path style="fill:#A4E3FD;" d="M136.589,295.031v19.59c0,0.55-0.45,1-1,1h-73.67c-0.34,0-0.65-0.18-0.83-0.44
			c-0.11-0.16-0.17-0.35-0.17-0.56v-19.59c0-0.55,0.45-1,1-1h73.67C136.139,294.031,136.589,294.481,136.589,295.031z"/>
		<polyline style="fill:#FFFFFF;" points="65.976,296.969 128.602,296.969 65.976,304.366 65.976,296.969 		"/>
		<path style="opacity:0.5;fill:#546E9E;" d="M136.589,295.031v19.59c0,0.55-0.45,1-1,1h-73.67c-0.34,0-0.65-0.18-0.83-0.44
			l73.1-5.65v-15.5h1.4C136.139,294.031,136.589,294.481,136.589,295.031z"/>
		<path style="opacity:0.5;fill:#546E9E;" d="M134.189,341.041v18.76c0,0.55-0.45,1-1,1h-67.85c-0.22,0-0.42-0.07-0.58-0.18
			l64.57-3.07l-0.79-17.51h4.65C133.739,340.041,134.189,340.481,134.189,341.041z"/>
		<path style="opacity:0.5;fill:#546E9E;" d="M134.189,386.221v18.77c0,0.55-0.45,1-1,1h-67.85c-0.28,0-0.53-0.11-0.71-0.29
			l64.7-2.96l-1.26-17.52h5.12C133.739,385.221,134.189,385.671,134.189,386.221z"/>
		<path style="opacity:0.5;fill:#546E9E;" d="M134.189,431.401v18.77c0,0.551-0.45,1-1,1h-67.85c-0.39,0-0.72-0.209-0.88-0.529
			l63.16-5.36v-14.88h5.57C133.739,430.401,134.189,430.851,134.189,431.401z"/>
		<path style="fill:#5852C3;" d="M120.791,288.866c0,11.923-9.902,21.589-22.116,21.589c-12.214,0-22.116-9.666-22.116-21.589
			c0-11.923,9.902-21.589,22.116-21.589C110.89,267.277,120.791,276.943,120.791,288.866z"/>
		<path style="fill:#FFFFFF;" d="M118.26,288.866c0,10.559-8.769,19.118-19.585,19.118c-10.815,0-19.584-8.559-19.584-19.118
			c0-10.559,8.769-19.118,19.584-19.118C109.491,269.749,118.26,278.308,118.26,288.866z"/>
		<path style="fill:#5852C3;" d="M104.089,303.366c0,0.552-0.448,1-1,1h-8.5c-0.552,0-1-0.448-1-1v-28.83c0-0.552,0.448-1,1-1h8.5
			c0.552,0,1,0.448,1,1V303.366z"/>
		<path style="fill:#5852C3;" d="M84.424,294.201c-0.552,0-1-0.448-1-1v-8.5c0-0.552,0.448-1,1-1h28.83c0.552,0,1,0.448,1,1v8.5
			c0,0.552-0.448,1-1,1H84.424z"/>
	</g>
</g>
<g id="DESIGNED_BY_FREEPIK">
	<g id="XMLID_74_">
		<g id="XMLID_880_">
			<g id="XMLID_921_">
				<path id="XMLID_929_" style="fill:#F9FBFC;" d="M260.104,476.875c-0.432,0.443-0.803,0.931-1.108,1.453l-0.465-0.241
					c-0.067-0.298-0.349-0.503-0.659-0.466c-0.331,0.038-0.567,0.339-0.529,0.669c0.039,0.331,0.339,0.568,0.67,0.529
					c0.065-0.008,0.126-0.026,0.183-0.052l0.452,0.233c-0.251,0.554-0.433,1.139-0.539,1.744l0.746,0.132
					c0.23-1.307,0.85-2.507,1.792-3.473L260.104,476.875z"/>
				<path id="XMLID_928_" style="fill:#F9FBFC;" d="M265.592,474.573c-0.171,0-0.341,0.006-0.51,0.017l-0.074-0.626
					c0.188-0.149,0.296-0.39,0.266-0.645c-0.046-0.393-0.402-0.675-0.795-0.628c-0.393,0.046-0.674,0.402-0.628,0.795
					c0.03,0.254,0.189,0.461,0.404,0.564l0.074,0.625c-0.714,0.115-1.403,0.331-2.06,0.646l0.327,0.684
					c0.934-0.446,1.942-0.673,2.996-0.673c0.497,0,0.993,0.053,1.475,0.157l0.161-0.74
					C266.692,474.632,266.142,474.573,265.592,474.573z"/>
				<path id="XMLID_927_" style="fill:#F9FBFC;" d="M272.194,477.12c0.331-0.041,0.566-0.342,0.525-0.673
					c-0.04-0.33-0.341-0.565-0.672-0.525c-0.31,0.038-0.535,0.304-0.53,0.609l-0.416,0.362c-0.418-0.43-0.89-0.813-1.408-1.139
					l-0.404,0.642c1.134,0.714,2.02,1.726,2.563,2.925l0.69-0.313c-0.25-0.554-0.567-1.072-0.942-1.545l0.402-0.351
					C272.065,477.125,272.129,477.128,272.194,477.12z"/>
				<path id="XMLID_926_" style="fill:#F9FBFC;" d="M265.044,484.781c-0.386,0.023-0.775,0.034-1.157,0.034
					c-0.88,0-1.733-0.06-2.479-0.179c-0.391-0.061-0.846-0.155-1.27-0.292c1.046,1.861,3.07,3.125,5.389,3.125
					c2.855,0,5.262-1.916,5.95-4.504c-0.682,0.449-1.505,0.825-2.459,1.123C267.838,484.456,266.463,484.696,265.044,484.781z"/>
				<path id="XMLID_922_" style="fill:#F9FBFC;" d="M265.592,476.089c-3.353,0-6.08,2.666-6.08,5.943
					c0,0.426,0.046,0.85,0.137,1.262c0.673,0.482,2.706,0.89,5.347,0.73c2.879-0.173,5.297-0.957,6.672-2.158
					c-0.005-0.195-0.021-0.39-0.045-0.582C271.244,478.322,268.65,476.089,265.592,476.089z M263.433,482.603
					c-1.02,0-1.85-0.829-1.85-1.85c0-1.02,0.83-1.85,1.85-1.85c1.02,0,1.85,0.83,1.85,1.85
					C265.282,481.774,264.452,482.603,263.433,482.603z M268.17,481.695c-0.75,0-1.36-0.61-1.36-1.36s0.61-1.36,1.36-1.36
					s1.36,0.61,1.36,1.36S268.92,481.695,268.17,481.695z"/>
			</g>
			<path id="XMLID_919_" style="fill:#F9FBFC;" d="M281.595,477.956c-0.295-0.116-0.806-0.309-1.382-0.237
				c-0.551,0.068-0.844,0.341-0.844,1.007v0.865h2.228v1.718h-2.228v5.455h-1.932v-5.455h-1.34v-1.718h1.34v-0.888
				c0-1.68,0.896-2.783,2.568-2.783c0.642,0,1.157,0.122,1.59,0.309L281.595,477.956z"/>
			<path id="XMLID_917_" style="fill:#F9FBFC;" d="M286.298,481.288c-0.177-0.03-0.358-0.046-0.526-0.046
				c-0.896,0-1.51,0.548-1.51,1.613v3.908h-1.932v-7.173h1.872v0.785c0.451-0.674,1.14-0.978,2.021-0.978
				c0.415,0,0.848,0.128,1.094,0.337L286.298,481.288z"/>
			<path id="XMLID_914_" style="fill:#F9FBFC;" d="M293.965,483.166c0,0.223-0.015,0.488-0.037,0.651h-5.085
				c0.207,1.036,0.933,1.487,1.843,1.487c0.622,0,1.295-0.251,1.814-0.688l1.132,1.243c-0.814,0.747-1.85,1.088-3.057,1.088
				c-2.198,0-3.723-1.495-3.723-3.752c0-2.258,1.48-3.798,3.626-3.798C292.544,479.398,293.957,480.931,293.965,483.166z
				 M288.851,482.5h3.175c-0.178-0.918-0.733-1.435-1.562-1.435C289.554,481.065,289.021,481.612,288.851,482.5z"/>
			<path id="XMLID_892_" style="fill:#F9FBFC;" d="M301.618,483.166c0,0.223-0.015,0.488-0.037,0.651h-5.085
				c0.207,1.036,0.933,1.487,1.843,1.487c0.622,0,1.295-0.251,1.813-0.688l1.132,1.243c-0.814,0.747-1.85,1.088-3.057,1.088
				c-2.198,0-3.723-1.495-3.723-3.752c0-2.258,1.48-3.798,3.627-3.798C300.197,479.398,301.611,480.931,301.618,483.166z
				 M296.504,482.5h3.175c-0.178-0.918-0.733-1.435-1.561-1.435C297.207,481.065,296.674,481.612,296.504,482.5z"/>
			<path id="XMLID_889_" style="fill:#F9FBFC;" d="M309.964,483.174c0,2.153-1.495,3.774-3.471,3.774
				c-0.962,0-1.643-0.377-2.109-0.933v3.708h-1.924v-10.133h1.887v0.792c0.466-0.584,1.155-0.984,2.139-0.984
				C308.469,479.398,309.964,481.02,309.964,483.174z M304.287,483.174c0,1.132,0.748,1.976,1.843,1.976
				c1.14,0,1.851-0.881,1.851-1.976c0-1.096-0.711-1.977-1.851-1.977C305.035,481.197,304.287,482.041,304.287,483.174z"/>
			<path id="XMLID_886_" style="fill:#F9FBFC;" d="M313.067,477.245c0,0.695-0.54,1.229-1.236,1.229s-1.229-0.533-1.229-1.229
				c0-0.695,0.533-1.243,1.229-1.243S313.067,476.55,313.067,477.245z M312.809,486.764h-1.932v-7.173h1.932V486.764z"/>
			<path id="XMLID_883_" style="fill:#F9FBFC;" d="M316.032,482.145l2.701-2.554h2.369l-3.479,3.376l3.501,3.797h-2.376
				l-2.716-2.901v2.901h-1.932v-10.658h1.932V482.145z"/>
		</g>
		<g id="XMLID_77_">
			<path id="XMLID_877_" style="fill:#F9FBFC;" d="M184.413,486.698v-1.055c-0.527,0.718-1.392,1.23-2.388,1.23
				c-1.846,0-3.149-1.406-3.149-3.706c0-2.256,1.289-3.721,3.149-3.721c0.952,0,1.816,0.469,2.388,1.245v-3.765h1.099v9.771H184.413
				z M184.413,484.779v-3.208c-0.395-0.615-1.245-1.143-2.124-1.143c-1.421,0-2.271,1.172-2.271,2.739s0.85,2.725,2.271,2.725
				C183.167,485.893,184.017,485.395,184.413,484.779z"/>
			<path id="XMLID_862_" style="fill:#F9FBFC;" d="M186.932,483.153c0-2.05,1.464-3.706,3.486-3.706c2.139,0,3.398,1.67,3.398,3.794
				v0.278h-5.728c0.088,1.333,1.025,2.446,2.549,2.446c0.806,0,1.626-0.322,2.183-0.893l0.527,0.718
				c-0.703,0.703-1.655,1.084-2.813,1.084C188.44,486.874,186.932,485.365,186.932,483.153z M190.403,480.356
				c-1.509,0-2.256,1.273-2.314,2.357h4.644C192.718,481.659,192.015,480.356,190.403,480.356z"/>
			<path id="XMLID_860_" style="fill:#F9FBFC;" d="M194.607,485.761l0.571-0.791c0.469,0.542,1.362,1.011,2.329,1.011
				c1.084,0,1.67-0.513,1.67-1.216c0-1.713-4.38-0.659-4.38-3.281c0-1.099,0.952-2.036,2.637-2.036c1.201,0,2.051,0.454,2.622,1.026
				l-0.513,0.762c-0.424-0.514-1.201-0.895-2.109-0.895c-0.967,0-1.567,0.483-1.567,1.113c0,1.553,4.379,0.527,4.379,3.281
				c0,1.186-0.952,2.139-2.783,2.139C196.306,486.874,195.325,486.522,194.607,485.761z"/>
			<path id="XMLID_855_" style="fill:#F9FBFC;" d="M201.477,477.881c0-0.41,0.337-0.747,0.732-0.747c0.41,0,0.747,0.337,0.747,0.747
				c0,0.41-0.337,0.731-0.747,0.731C201.814,478.612,201.477,478.291,201.477,477.881z M201.667,486.698v-7.075h1.099v7.075H201.667
				z"/>
			<path id="XMLID_851_" style="fill:#F9FBFC;" d="M204.582,488.515l0.557-0.82c0.586,0.703,1.289,0.967,2.3,0.967
				c1.172,0,2.27-0.571,2.27-2.124v-1.011c-0.512,0.718-1.376,1.26-2.373,1.26c-1.845,0-3.149-1.377-3.149-3.662
				c0-2.271,1.289-3.677,3.149-3.677c0.952,0,1.802,0.469,2.373,1.245v-1.069h1.099v6.87c0,2.344-1.641,3.076-3.369,3.076
				C206.237,489.569,205.417,489.335,204.582,488.515z M209.708,484.662v-3.091c-0.381-0.615-1.23-1.143-2.109-1.143
				c-1.421,0-2.27,1.128-2.27,2.695c0,1.553,0.849,2.695,2.27,2.695C208.478,485.819,209.328,485.277,209.708,484.662z"/>
			<path id="XMLID_849_" style="fill:#F9FBFC;" d="M217.413,486.698v-4.629c0-1.245-0.629-1.641-1.582-1.641
				c-0.865,0-1.685,0.527-2.095,1.1v5.17h-1.099v-7.075h1.099v1.025c0.498-0.585,1.464-1.201,2.519-1.201
				c1.479,0,2.256,0.747,2.256,2.285v4.966H217.413z"/>
			<path id="XMLID_842_" style="fill:#F9FBFC;" d="M219.933,483.153c0-2.05,1.465-3.706,3.486-3.706c2.138,0,3.398,1.67,3.398,3.794
				v0.278h-5.728c0.088,1.333,1.025,2.446,2.549,2.446c0.805,0,1.625-0.322,2.183-0.893l0.527,0.718
				c-0.703,0.703-1.655,1.084-2.812,1.084C221.441,486.874,219.933,485.365,219.933,483.153z M223.404,480.356
				c-1.509,0-2.256,1.273-2.314,2.357h4.643C225.718,481.659,225.015,480.356,223.404,480.356z"/>
			<path id="XMLID_140_" style="fill:#F9FBFC;" d="M233.35,486.698v-1.055c-0.527,0.718-1.392,1.23-2.388,1.23
				c-1.845,0-3.149-1.406-3.149-3.706c0-2.256,1.289-3.721,3.149-3.721c0.952,0,1.817,0.469,2.388,1.245v-3.765h1.098v9.771H233.35z
				 M233.35,484.779v-3.208c-0.396-0.615-1.245-1.143-2.124-1.143c-1.421,0-2.271,1.172-2.271,2.739s0.85,2.725,2.271,2.725
				C232.105,485.893,232.954,485.395,233.35,484.779z"/>
			<path id="XMLID_112_" style="fill:#F9FBFC;" d="M239.692,486.698v-9.771h1.099v3.765c0.572-0.776,1.421-1.245,2.388-1.245
				c1.846,0,3.149,1.465,3.149,3.721c0,2.3-1.304,3.706-3.149,3.706c-0.996,0-1.86-0.513-2.388-1.23v1.055H239.692z M242.9,485.893
				c1.436,0,2.285-1.157,2.285-2.725s-0.85-2.739-2.285-2.739c-0.864,0-1.729,0.527-2.109,1.143v3.208
				C241.171,485.395,242.036,485.893,242.9,485.893z"/>
			<path id="XMLID_105_" style="fill:#F9FBFC;" d="M247.528,488.471c0.161,0.073,0.425,0.117,0.601,0.117
				c0.483,0,0.805-0.161,1.055-0.747l0.469-1.069l-2.959-7.149h1.187l2.358,5.801l2.344-5.801h1.201l-3.545,8.511
				c-0.425,1.025-1.143,1.421-2.08,1.436c-0.234,0-0.601-0.044-0.805-0.103L247.528,488.471z"/>
		</g>
	</g>
</g>
</svg>
