<?xml version="1.0" encoding="utf-8"?>
<!-- Generator: Adobe Illustrator 27.5.0, SVG Export Plug-In . SVG Version: 6.00 Build 0)  -->
<svg version="1.1" id="Layer_1" xmlns="http://www.w3.org/2000/svg" xmlns:xlink="http://www.w3.org/1999/xlink" x="0px" y="0px"
	 viewBox="0 0 2549.798 2000" style="enable-background:new 0 0 2549.798 2000;" xml:space="preserve">
<rect style="fill:#FFFFFF;" width="2549.798" height="2000"/>
<g>
	<g>
		<g>
			<g>
				<g>
					<g>
						<path style="fill:#D3F0EF;" d="M1792.113,1791.347c277.599-80.463,579.071-299.942,564.982-747.698
							c-16.227-515.669-566.956-829.051-746.09-873.916s-359.608-24.382-411.055,61.334
							c-72.004,119.967-129.75,135.506-281.199,129.297c-81.878-3.357-452.538-117.124-654.364,250.187
							c-127.39,231.842-109.969,794.04,248.094,1068.785C811.747,1908.966,1514.515,1871.81,1792.113,1791.347z"/>
					</g>
				</g>
			</g>
		</g>
	</g>
	<g>
		<g>
			<g>
				<g>
					<path style="fill:#49263E;" d="M1495.762,1645.172c0.033,18.48-14.833,33.49-33.201,33.523l-1025.116,1.84
						c-18.358,0.033-33.279-14.921-33.312-33.401l-2.45-1362.583c-0.033-18.48,14.821-33.478,33.19-33.512l1025.116-1.851
						c18.369-0.033,33.279,14.921,33.312,33.401L1495.762,1645.172z"/>
				</g>
			</g>
		</g>
		<g>
			<g>
				<g>
					<g>
						<g>
							<polygon style="fill:#FFFFFF;" points="473.176,1592.791 473.176,315.356 1424.515,315.356 1424.515,1362.09 
								1201.468,1592.791 							"/>
						</g>
					</g>
				</g>
			</g>
		</g>
		<g>
			<g>
				<path style="fill:#4CB7D8;" d="M948.846,162.605c-84.187,0-152.434,68.247-152.434,152.434c0,0.106,0.004,0.211,0.004,0.317
					h304.859c0-0.106,0.004-0.211,0.004-0.317C1101.28,230.852,1033.033,162.605,948.846,162.605z M948.846,277.086
					c-14.899,0-26.976-12.078-26.976-26.976c0-14.898,12.078-26.976,26.976-26.976c14.898,0,26.976,12.078,26.976,26.976
					C975.822,265.009,963.744,277.086,948.846,277.086z"/>
			</g>
		</g>
		<g>
			<g>
				<g>
					<path style="fill:#B1E8FC;" d="M732.479,663.308H548.075V478.904h184.404V663.308z M561.388,649.995h157.777V492.217H561.388
						V649.995z"/>
				</g>
			</g>
		</g>
		<g>
			<g>
				<g>
					<path style="fill:#B1E8FC;" d="M732.479,916.414H548.075V732.01h184.404V916.414z M561.388,903.101h157.777V745.324H561.388
						V903.101z"/>
				</g>
			</g>
		</g>
		<g>
			<g>
				<g>
					<path style="fill:#B1E8FC;" d="M732.479,1169.521H548.075V985.117h184.404V1169.521z M561.388,1156.207h157.777V998.43H561.388
						V1156.207z"/>
				</g>
			</g>
		</g>
		<g>
			<g>
				<g>
					<rect x="778.932" y="509.229" style="fill:#B1E8FC;" width="564.543" height="18.935"/>
				</g>
			</g>
			<g>
				<g>
					<rect x="778.932" y="592.859" style="fill:#B1E8FC;" width="564.543" height="18.935"/>
				</g>
			</g>
		</g>
		<g>
			<g>
				<g>
					<rect x="778.932" y="772.93" style="fill:#B1E8FC;" width="564.543" height="18.935"/>
				</g>
			</g>
			<g>
				<g>
					<rect x="778.932" y="856.559" style="fill:#B1E8FC;" width="564.543" height="18.935"/>
				</g>
			</g>
		</g>
		<g>
			<g>
				<g>
					<rect x="778.932" y="1036.631" style="fill:#B1E8FC;" width="564.543" height="18.935"/>
				</g>
			</g>
			<g>
				<g>
					<rect x="778.932" y="1120.26" style="fill:#B1E8FC;" width="564.543" height="18.935"/>
				</g>
			</g>
		</g>
		<g>
			<g>
				<g>
					<rect x="778.932" y="1300.332" style="fill:#B1E8FC;" width="564.543" height="18.935"/>
				</g>
			</g>
			<g>
				<g>
					<rect x="778.932" y="1383.961" style="fill:#B1E8FC;" width="564.543" height="18.935"/>
				</g>
			</g>
		</g>
		<g>
			<g>
				<g>
					<g>
						<g>
							<path style="fill:#FF424D;" d="M637.876,637.25l-55.412-84.631c-1.273-1.944-0.769-4.579,1.126-5.885
								c1.898-1.306,4.464-0.787,5.737,1.156l46.602,71.175l59.213-155.378c0.831-2.181,3.228-3.258,5.355-2.406
								c2.126,0.853,3.176,3.313,2.345,5.494L637.876,637.25z"/>
						</g>
					</g>
				</g>
			</g>
		</g>
		<g>
			<g>
				<g>
					<g>
						<g>
							<path style="fill:#FF424D;" d="M643.065,882.18l-67.334-101.061c-1.578-2.41-0.953-5.676,1.396-7.295
								c2.353-1.619,5.533-0.976,7.111,1.433l56.413,84.38l73.402-192.612c1.03-2.704,4.002-4.039,6.638-2.982
								c2.636,1.057,3.938,4.106,2.907,6.81L643.065,882.18z"/>
						</g>
					</g>
				</g>
			</g>
		</g>
		<g>
			<g>
				<g>
					<g>
						<g>
							<path style="fill:#FF424D;" d="M643.065,1133.041l-67.334-101.062c-1.578-2.41-0.953-5.676,1.396-7.295
								c2.353-1.619,5.533-0.976,7.111,1.433l56.413,84.38l73.402-192.612c1.03-2.704,4.002-4.039,6.638-2.982
								c2.636,1.057,3.938,4.106,2.907,6.81L643.065,1133.041z"/>
						</g>
					</g>
				</g>
			</g>
		</g>
		<g>
			<g>
				<g>
					
						<ellipse transform="matrix(0.7071 -0.7071 0.7071 0.7071 -757.0207 841.916)" style="fill:#FF424D;" cx="637.772" cy="1334.763" rx="107.76" ry="107.76"/>
				</g>
			</g>
			<g>
				<g>
					<polygon style="fill:#FFFFFF;" points="626.189,1262.855 647.872,1262.631 648.504,1323.945 709.821,1324.089 
						709.769,1345.774 648.727,1345.631 649.356,1406.67 627.672,1406.894 627.041,1345.58 565.723,1345.437 565.775,1323.752 
						626.817,1323.895 					"/>
				</g>
			</g>
		</g>
		<g style="opacity:0.2;">
			<g style="opacity:0.5;">
				<g>
					<path style="fill:#4CB7D8;" d="M973.5,1510.373c-67.427,0-122.282-54.856-122.282-122.283
						c0-67.427,54.856-122.282,122.282-122.282c67.427,0,122.283,54.856,122.283,122.282
						C1095.783,1455.517,1040.927,1510.373,973.5,1510.373z M973.5,1278.957c-60.177,0-109.134,48.957-109.134,109.134
						s48.957,109.134,109.134,109.134c60.177,0,109.134-48.957,109.134-109.134S1033.677,1278.957,973.5,1278.957z"/>
				</g>
			</g>
			<g style="opacity:0.5;">
				<g>
					
						<ellipse transform="matrix(0.7071 -0.7071 0.7071 0.7071 -696.3969 1094.931)" style="fill:#4CB7D8;" cx="973.5" cy="1388.091" rx="80.207" ry="80.207"/>
				</g>
			</g>
		</g>
		<g>
			<g>
				<g>
					<g>
						<polygon style="fill:#DCF4FF;" points="1424.515,1362.09 1201.468,1592.791 1201.468,1362.09 						"/>
					</g>
				</g>
			</g>
		</g>
		<g>
			<path d="M402.791,752.292h-2.217V284.552c0.004-0.358,0.789-34.56,34.296-34.62l331.688-0.599l0.004,2.217l-331.688,0.599
				c-31.305,0.056-32.067,31.095-32.084,32.417V752.292z"/>
		</g>
	</g>
	<g>
		<g>
			<path style="fill:#F75553;" d="M1466.12,1446.129c0,0-35.237,35.323-37.317,41.703c-2.081,6.38,14.354,21.015,18.838,23.659
				c4.484,2.644,48.121-16.209,48.121-16.209L1466.12,1446.129z"/>
		</g>
		<g>
			<path style="fill:#FE9F73;" d="M1492.198,1411.535c0,0-46.825,48.15-35.249,76.86c11.576,28.709,93.451,22.91,115.88-4.877
				C1595.259,1455.731,1492.198,1411.535,1492.198,1411.535z"/>
		</g>
		<g>
			<path style="fill:#ED7163;" d="M2364.839,1710.648c0,0-153.637,102.26-267.23,70.784s-27.107-207.305-28.471-204.957
				c-1.364,2.347,146.534-144.07,181.523-139.436c34.989,4.634,182.368,21.204,170.09,42.329
				C2408.472,1500.494,2364.839,1710.648,2364.839,1710.648z"/>
		</g>
		<g>
			<g>
				<g>
					<g>
						<path style="fill:#FFFFFF;" d="M2262.779,1538.15l-212.215,259.716c-19.95,24.416-55.917,28.036-80.333,8.086
							l-481.598-393.515c-24.416-19.951-28.037-55.917-8.086-80.333l212.214-259.715c19.95-24.416,55.917-28.036,80.333-8.086
							l481.598,393.515C2279.11,1477.767,2282.73,1513.734,2262.779,1538.15z"/>
					</g>
				</g>
				<g>
					<g>
						<path style="fill:#FFFFFF;" d="M1693.833,1071.078l-103.092,126.167l570.017,465.763l103.092-126.167
							c19.359-23.693,15.279-59.058-9.115-78.99l-481.68-393.582C1748.661,1044.336,1713.192,1047.385,1693.833,1071.078z"/>
					</g>
				</g>
				<g>
					<g>
						<g>
							<path style="fill:#DCF4FF;" d="M1633.721,1412.382c-24.644,17.191-58.089,12.33-76.913-10.418
								c-1.01-1.218-1.977-2.48-2.9-3.802c-0.922-1.322-1.772-2.666-2.567-4.034c-14.847-25.522-7.858-58.588,16.786-75.779
								c24.644-17.191,58.089-12.33,76.913,10.418c1.01,1.218,1.977,2.48,2.9,3.802c0.922,1.322,1.772,2.666,2.567,4.034
								C1665.354,1362.126,1658.365,1395.192,1633.721,1412.382z"/>
						</g>
					</g>
					<g>
						<g>
							<path style="fill:#DCF4FF;" d="M1647.94,1332.569l-94.033,65.593c18.113,25.966,53.846,32.333,79.813,14.22
								C1659.687,1394.269,1666.053,1358.536,1647.94,1332.569z"/>
						</g>
					</g>
					<g>
						<g>
							<path style="fill:#83D0E5;" d="M1650.507,1336.604l-93.7,65.361c-1.01-1.218-1.977-2.48-2.9-3.802
								c-0.922-1.322-1.772-2.666-2.567-4.034l93.7-65.361c1.01,1.218,1.977,2.48,2.9,3.802
								C1648.863,1333.892,1649.713,1335.236,1650.507,1336.604z"/>
						</g>
					</g>
					<g>
						<g>
							<path d="M1648.431,1332.228l-0.98,0.683c-0.88-1.26-1.845-2.526-2.869-3.762c-18.653-22.542-52.086-27.07-76.112-10.31
								c-24.027,16.758-31.325,49.698-16.612,74.989c0.805,1.385,1.659,2.729,2.54,3.993c0.88,1.261,1.845,2.526,2.869,3.762
								l-0.919,0.763c-1.046-1.262-2.031-2.554-2.93-3.842c-0.9-1.291-1.772-2.662-2.593-4.075
								c-15.021-25.822-7.573-59.454,16.961-76.569c24.534-17.113,58.67-12.489,77.716,10.527
								C1646.547,1329.649,1647.532,1330.94,1648.431,1332.228z"/>
						</g>
					</g>
					<g>
						<g>
							
								<rect x="1577.771" y="1365.474" transform="matrix(0.8202 -0.5721 0.5721 0.8202 -492.3446 1165.7986)" width="60.984" height="1.195"/>
						</g>
					</g>
					<g>
						<g>
							
								<rect x="1553.448" y="1359.731" transform="matrix(0.8202 -0.5721 0.5721 0.8202 -490.5791 1159.8937)" width="92.696" height="1.195"/>
						</g>
					</g>
					<g>
						<g>
							<path d="M1645.859,1401.801c-5.12,6.263-12.359,12.434-22.575,17l-0.488-1.091c30.801-13.765,33.985-42.326,34.014-42.613
								l1.189,0.12C1657.979,1375.414,1656.486,1388.802,1645.859,1401.801z"/>
						</g>
					</g>
				</g>
				<g>
					<g>
						<g>
							<path style="fill:#DCF4FF;" d="M1776.156,1235.185c-26.269,14.588-59.044,6.341-75.45-18.208
								c-0.88-1.314-1.714-2.668-2.497-4.078c-0.783-1.41-1.491-2.833-2.142-4.275c-12.167-26.903-1.841-59.084,24.427-73.672
								c26.27-14.588,59.044-6.341,75.45,18.208c0.88,1.315,1.714,2.668,2.497,4.078c0.783,1.409,1.491,2.833,2.142,4.275
								C1812.75,1188.416,1802.425,1220.597,1776.156,1235.185z"/>
						</g>
					</g>
					<g>
						<g>
							<path style="fill:#DCF4FF;" d="M1798.442,1157.238l-100.232,55.661c15.37,27.678,50.268,37.656,77.946,22.286
								S1813.812,1184.917,1798.442,1157.238z"/>
						</g>
					</g>
					<g>
						<g>
							<path style="fill:#83D0E5;" d="M1800.583,1161.513l-99.878,55.464c-0.88-1.314-1.714-2.668-2.497-4.078
								c-0.783-1.41-1.491-2.833-2.142-4.275l99.877-55.464c0.88,1.315,1.714,2.668,2.497,4.078
								C1799.224,1158.648,1799.933,1160.071,1800.583,1161.513z"/>
						</g>
					</g>
					<g>
						<g>
							<path d="M1798.964,1156.948l-1.044,0.58c-0.756-1.362-1.564-2.682-2.472-4.036c-16.256-24.326-49.052-32.241-74.663-18.018
								c-25.611,14.222-36.231,46.244-24.174,72.904c0.66,1.463,1.372,2.886,2.118,4.23c0.757,1.361,1.565,2.682,2.472,4.036
								l-0.992,0.665c-0.912-1.363-1.761-2.749-2.523-4.12c-0.763-1.374-1.49-2.827-2.163-4.319
								c-12.311-27.221-1.466-59.917,24.682-74.439c26.151-14.522,59.638-6.441,76.236,18.398
								C1797.353,1154.19,1798.202,1155.577,1798.964,1156.948z"/>
						</g>
					</g>
					<g>
						<g>
							
								<rect x="1725.062" y="1185.921" transform="matrix(0.8742 -0.4855 0.4855 0.8742 -355.2668 1001.5012)" width="60.984" height="1.195"/>
						</g>
					</g>
					<g>
						<g>
							
								<rect x="1701.369" y="1179.345" transform="matrix(0.8742 -0.4855 0.4855 0.8742 -353.0603 996.8754)" width="92.695" height="1.195"/>
						</g>
					</g>
					<g>
						<g>
							<path d="M1793.286,1221.509c-5.906,7.224-14.836,14.607-28.167,18.997l-0.374-1.135
								c32.016-10.543,38.125-38.64,38.182-38.922l1.169,0.239C1804.062,1200.859,1801.863,1211.017,1793.286,1221.509z"/>
						</g>
					</g>
				</g>
				<g>
					<g>
						<g>
							<path style="fill:#DCF4FF;" d="M1779.229,1488.045c-10.814,28.034-41.258,42.711-69.585,34.382
								c-1.518-0.445-3.026-0.95-4.53-1.53c-1.504-0.58-2.96-1.219-4.384-1.909c-26.582-12.853-39.282-44.172-28.468-72.207
								c10.815-28.034,41.258-42.711,69.586-34.381c1.518,0.445,3.026,0.95,4.53,1.53c1.504,0.58,2.96,1.219,4.384,1.909
								C1777.344,1428.691,1790.044,1460.011,1779.229,1488.045z"/>
						</g>
					</g>
					<g>
						<g>
							<path style="fill:#DCF4FF;" d="M1746.377,1413.93l-41.264,106.967c29.538,11.395,62.721-3.313,74.115-32.851
								C1790.624,1458.507,1775.916,1425.324,1746.377,1413.93z"/>
						</g>
					</g>
					<g>
						<g>
							<path style="fill:#83D0E5;" d="M1750.761,1415.839l-41.118,106.588c-1.518-0.445-3.026-0.95-4.53-1.53
								c-1.504-0.58-2.96-1.219-4.384-1.909l41.118-106.588c1.518,0.445,3.026,0.95,4.53,1.53
								C1747.882,1414.51,1749.338,1415.148,1750.761,1415.839z"/>
						</g>
					</g>
					<g>
						<g>
							<path d="M1709.476,1523c-1.57-0.46-3.11-0.98-4.577-1.545c-1.467-0.567-2.957-1.216-4.429-1.929
								c-26.895-13.004-39.53-45.053-28.764-72.959c10.761-27.913,41.648-43.167,70.31-34.74c1.569,0.46,3.109,0.979,4.576,1.545
								l-0.429,1.115c-1.437-0.554-2.945-1.063-4.483-1.513c-28.071-8.254-58.313,6.692-68.861,34.023
								c-10.543,27.332,1.831,58.719,28.171,71.455c1.443,0.699,2.902,1.335,4.338,1.889c1.437,0.554,2.945,1.063,4.483,1.513
								L1709.476,1523z"/>
						</g>
					</g>
					<g>
						<g>
							
								<rect x="1701.731" y="1463.297" transform="matrix(0.3599 -0.933 0.933 0.3599 -256.9896 2553.2109)" width="60.984" height="1.193"/>
						</g>
					</g>
					<g>
						<g>
							
								<rect x="1675.645" y="1463.272" transform="matrix(0.36 -0.9329 0.9329 0.36 -263.6647 2543.3745)" width="92.695" height="1.193"/>
						</g>
					</g>
					<g>
						<g>
							<path d="M1774.167,1499.203l-1.014-0.632c17.833-28.636,4.499-54.095,4.362-54.348l1.051-0.567
								C1778.707,1443.917,1792.362,1469.985,1774.167,1499.203z"/>
						</g>
					</g>
				</g>
				<g>
					<g>
						<g>
							<path style="fill:#DCF4FF;" d="M1926.082,1309.116c-11.532,27.747-42.343,41.635-70.447,32.58
								c-1.506-0.484-3-1.027-4.489-1.646c-1.489-0.619-2.928-1.295-4.333-2.021c-26.243-13.533-38.133-45.169-26.6-72.915
								c11.532-27.747,42.343-41.635,70.447-32.58c1.506,0.484,3.001,1.027,4.489,1.646c1.489,0.619,2.928,1.295,4.333,2.021
								C1925.724,1249.734,1937.614,1281.37,1926.082,1309.116z"/>
						</g>
					</g>
					<g>
						<g>
							<path style="fill:#DCF4FF;" d="M1895.148,1234.181l-44.002,105.87c29.235,12.151,62.785-1.699,74.936-30.934
								C1938.233,1279.881,1924.383,1246.331,1895.148,1234.181z"/>
						</g>
					</g>
					<g>
						<g>
							<path style="fill:#83D0E5;" d="M1899.481,1236.201l-43.846,105.495c-1.506-0.484-3-1.027-4.489-1.646
								c-1.489-0.619-2.928-1.295-4.333-2.021l43.846-105.495c1.506,0.484,3.001,1.027,4.489,1.646
								C1896.637,1234.799,1898.076,1235.475,1899.481,1236.201z"/>
						</g>
					</g>
					<g>
						<g>
							<path d="M1855.452,1342.264c-1.555-0.499-3.081-1.059-4.536-1.662c-1.45-0.603-2.924-1.291-4.378-2.042
								c-26.551-13.692-38.358-46.054-26.877-73.675c11.479-27.626,42.746-42.082,71.181-32.919
								c1.555,0.499,3.081,1.059,4.535,1.662l-0.459,1.103c-1.423-0.591-2.918-1.139-4.443-1.629
								c-27.848-8.972-58.461,5.19-69.713,32.24c-11.243,27.052,0.32,58.746,26.324,72.156c1.425,0.737,2.868,1.41,4.288,2
								c1.424,0.591,2.918,1.139,4.443,1.629L1855.452,1342.264z"/>
						</g>
					</g>
					<g>
						<g>
							
								<rect x="1849.221" y="1283.167" transform="matrix(0.3839 -0.9234 0.9234 0.3839 -27.3208 2526.5789)" width="60.984" height="1.193"/>
						</g>
					</g>
					<g>
						<g>
							
								<rect x="1823.139" y="1282.878" transform="matrix(0.3838 -0.9234 0.9234 0.3838 -33.1643 2517.2529)" width="92.695" height="1.193"/>
						</g>
					</g>
					<g>
						<g>
							<path d="M1920.734,1320.14l-0.997-0.657c18.564-28.169,5.889-53.96,5.759-54.218l1.065-0.539
								C1926.695,1264.99,1939.676,1291.401,1920.734,1320.14z"/>
						</g>
					</g>
				</g>
				<g>
					<g>
						<g>
							<path style="fill:#DCF4FF;" d="M1887.781,1613.063c-22.855,19.506-56.615,17.922-77.562-2.887
								c-1.123-1.114-2.209-2.275-3.256-3.502c-1.047-1.226-2.023-2.481-2.947-3.766c-17.26-23.957-13.52-57.546,9.336-77.052
								c22.855-19.507,56.614-17.922,77.562,2.887c1.123,1.114,2.209,2.276,3.256,3.502c1.047,1.226,2.023,2.481,2.947,3.766
								C1914.376,1559.968,1910.637,1593.557,1887.781,1613.063z"/>
						</g>
					</g>
					<g>
						<g>
							<path style="fill:#DCF4FF;" d="M1894.17,1532.246l-87.207,74.429c20.553,24.081,56.736,26.942,80.818,6.389
								S1914.723,1556.327,1894.17,1532.246z"/>
						</g>
					</g>
					<g>
						<g>
							<path style="fill:#83D0E5;" d="M1897.117,1536.011l-86.898,74.165c-1.123-1.114-2.209-2.275-3.256-3.502
								c-1.047-1.226-2.023-2.481-2.947-3.766l86.898-74.165c1.123,1.114,2.209,2.276,3.256,3.502
								C1895.217,1533.472,1896.194,1534.727,1897.117,1536.011z"/>
						</g>
					</g>
					<g>
						<g>
							<path d="M1894.624,1531.858l-0.908,0.776c-0.997-1.169-2.081-2.334-3.221-3.466c-20.758-20.62-54.472-21.875-76.754-2.857
								c-22.29,19.02-26.342,52.51-9.24,76.249c0.954,1.326,1.909,2.545,2.917,3.727c0.997,1.168,2.08,2.334,3.221,3.466
								l-0.841,0.848c-1.164-1.154-2.271-2.345-3.289-3.538c-1.031-1.208-2.005-2.452-2.978-3.805
								c-17.461-24.238-13.316-58.433,9.433-77.855c22.752-19.419,57.177-18.137,78.37,2.917
								C1892.499,1529.474,1893.606,1530.665,1894.624,1531.858z"/>
						</g>
					</g>
					<g>
						<g>
							
								<rect x="1827.448" y="1568.851" transform="matrix(0.7606 -0.6492 0.6492 0.7606 -574.1281 1581.8076)" width="60.984" height="1.195"/>
						</g>
					</g>
					<g>
						<g>
							
								<rect x="1802.606" y="1563.959" transform="matrix(0.7606 -0.6492 0.6492 0.7606 -573.1035 1574.8259)" width="92.695" height="1.195"/>
						</g>
					</g>
					<g>
						<g>
							<path d="M1895.483,1605.881c-4.256,5.206-9.922,10.29-17.465,14.585l-0.591-1.038c29.293-16.682,29.706-45.432,29.707-45.72
								l1.194,0.002C1908.328,1573.933,1908.104,1590.444,1895.483,1605.881z"/>
						</g>
					</g>
				</g>
				<g>
					<g>
						<g>
							<path style="fill:#DCF4FF;" d="M2013.695,1444.288c-28.895,8.244-58.942-7.228-69.347-34.86
								c-0.559-1.48-1.063-2.988-1.505-4.538c-0.443-1.55-0.809-3.097-1.116-4.649c-5.742-28.963,11.619-57.96,40.514-66.203
								c28.895-8.244,58.942,7.228,69.347,34.86c0.558,1.48,1.063,2.988,1.506,4.538c0.442,1.55,0.809,3.098,1.115,4.649
								C2059.951,1407.048,2042.59,1436.044,2013.695,1444.288z"/>
						</g>
					</g>
					<g>
						<g>
							<path style="fill:#DCF4FF;" d="M2053.094,1373.435l-110.251,31.454c8.686,30.445,40.407,48.084,70.852,39.398
								C2044.14,1435.602,2061.78,1403.88,2053.094,1373.435z"/>
						</g>
					</g>
					<g>
						<g>
							<path style="fill:#83D0E5;" d="M2054.209,1378.085l-109.861,31.343c-0.559-1.48-1.063-2.988-1.505-4.538
								c-0.443-1.55-0.809-3.097-1.116-4.649l109.861-31.343c0.558,1.48,1.063,2.988,1.506,4.538
								C2053.536,1374.986,2053.903,1376.533,2054.209,1378.085z"/>
						</g>
					</g>
					<g>
						<g>
							<path d="M2053.667,1373.271l-1.148,0.329c-0.422-1.478-0.923-2.989-1.489-4.491c-10.31-27.381-40.454-42.534-68.626-34.498
								c-28.17,8.037-45.781,36.814-40.091,65.513c0.316,1.602,0.677,3.107,1.104,4.602c0.422,1.478,0.923,2.989,1.49,4.491
								l-1.116,0.422c-0.58-1.534-1.09-3.076-1.521-4.585c-0.429-1.505-0.809-3.086-1.127-4.698
								c-5.81-29.303,12.171-58.687,40.936-66.893c28.764-8.206,59.542,7.267,70.069,35.225
								C2052.726,1370.22,2053.237,1371.762,2053.667,1373.271z"/>
						</g>
					</g>
					<g>
						<g>
							
								<rect x="1974.187" y="1391.618" transform="matrix(0.9616 -0.2744 0.2744 0.9616 -305.0359 603.407)" width="60.984" height="1.194"/>
						</g>
					</g>
					<g>
						<g>
							
								<rect x="1952.191" y="1383.435" transform="matrix(0.9616 -0.2743 0.2743 0.9616 -303.0217 601.3953)" width="92.696" height="1.194"/>
						</g>
					</g>
					<g>
						<g>
							<path d="M2043.09,1425.525c-6.663,8.15-19.669,19.501-41.351,21.439l-0.106-1.189c33.571-3,45.902-28.976,46.02-29.239
								l1.085,0.498C2048.693,1417.134,2046.963,1420.789,2043.09,1425.525z"/>
						</g>
					</g>
				</g>
				<g>
					<g>
						<g>
							<path style="fill:#DCF4FF;" d="M2032.712,1671.989c-0.253,30.047-23.58,54.501-53.027,56.678
								c-1.578,0.118-3.167,0.176-4.779,0.163c-1.612-0.014-3.2-0.099-4.776-0.243c-29.405-2.672-52.318-27.516-52.065-57.562
								c0.253-30.047,23.581-54.501,53.027-56.678c1.578-0.118,3.167-0.176,4.779-0.163c1.612,0.013,3.2,0.099,4.775,0.243
								C2010.052,1617.099,2032.964,1641.942,2032.712,1671.989z"/>
						</g>
					</g>
					<g>
						<g>
							<path style="fill:#DCF4FF;" d="M1975.871,1614.184l-0.964,114.646c31.658,0.266,57.539-25.182,57.805-56.841
								C2032.978,1640.331,2007.529,1614.451,1975.871,1614.184z"/>
						</g>
					</g>
					<g>
						<g>
							<path style="fill:#83D0E5;" d="M1980.646,1614.427l-0.961,114.24c-1.578,0.118-3.167,0.176-4.779,0.163
								c-1.612-0.014-3.2-0.099-4.776-0.243l0.961-114.24c1.578-0.118,3.167-0.176,4.779-0.163
								C1977.483,1614.198,1979.071,1614.283,1980.646,1614.427z"/>
						</g>
					</g>
					<g>
						<g>
							<path d="M1979.73,1729.263c-1.635,0.123-3.261,0.178-4.828,0.164c-1.582-0.013-3.161-0.093-4.825-0.245
								c-29.751-2.704-52.86-28.252-52.608-58.163c0.25-29.91,23.786-55.065,53.58-57.268c1.634-0.123,3.259-0.178,4.827-0.165
								l-0.009,1.194c-1.536-0.014-3.127,0.04-4.729,0.161c-29.178,2.156-52.226,26.793-52.475,56.088
								c-0.246,29.293,22.385,54.314,51.522,56.962c1.631,0.15,3.177,0.228,4.726,0.241c1.536,0.014,3.127-0.04,4.729-0.161
								L1979.73,1729.263z"/>
						</g>
					</g>
					<g>
						<g>
							<rect x="1949.721" y="1665.335" transform="matrix(0.0085 -1 1 0.0085 297.4231 3631.8394)" width="60.983" height="1.194"/>
						</g>
					</g>
					<g>
						<g>
							<rect x="1924.281" y="1668.914" transform="matrix(0.0084 -1 1 0.0084 284.6685 3626.0842)" width="92.696" height="1.194"/>
						</g>
					</g>
					<g>
						<g>
							<path d="M2031.902,1684.215l-1.171-0.234c6.61-33.081-14.833-52.215-15.051-52.405l0.784-0.9
								C2016.688,1630.87,2038.647,1650.462,2031.902,1684.215z"/>
						</g>
					</g>
				</g>
				<g>
					<g>
						<g>
							<path style="fill:#DCF4FF;" d="M2175.985,1512.573c-11.198,27.883-41.84,42.141-70.05,33.423
								c-1.512-0.466-3.012-0.991-4.509-1.592c-1.496-0.601-2.943-1.259-4.357-1.969c-26.403-13.217-38.672-44.707-27.474-72.591
								c11.198-27.883,41.84-42.141,70.051-33.424c1.511,0.466,3.012,0.991,4.508,1.592c1.496,0.601,2.943,1.259,4.357,1.969
								C2174.914,1453.199,2187.183,1484.69,2175.985,1512.573z"/>
						</g>
					</g>
					<g>
						<g>
							<path style="fill:#DCF4FF;" d="M2144.153,1438.014l-42.727,106.391c29.379,11.799,62.76-2.453,74.559-31.832
								C2187.784,1483.194,2173.533,1449.813,2144.153,1438.014z"/>
						</g>
					</g>
					<g>
						<g>
							<path style="fill:#83D0E5;" d="M2148.511,1439.983l-42.576,106.014c-1.512-0.466-3.012-0.991-4.509-1.592
								c-1.496-0.601-2.943-1.259-4.357-1.969l42.576-106.014c1.511,0.466,3.012,0.991,4.508,1.592
								C2145.65,1438.615,2147.097,1439.273,2148.511,1439.983z"/>
						</g>
					</g>
					<g>
						<g>
							<path d="M2105.759,1546.567c-1.565-0.481-3.097-1.022-4.554-1.608c-1.474-0.591-2.913-1.242-4.403-1.989
								c-26.715-13.372-38.909-45.589-27.761-73.347c11.147-27.757,42.239-42.591,70.781-33.771
								c1.565,0.481,3.097,1.022,4.554,1.608l-0.445,1.108c-1.427-0.573-2.928-1.103-4.461-1.575
								c-27.955-8.639-58.406,5.891-69.32,33.076c-10.918,27.184,1.023,58.737,27.188,71.834c1.459,0.732,2.87,1.369,4.313,1.948
								c1.427,0.573,2.927,1.103,4.461,1.575L2105.759,1546.567z"/>
						</g>
					</g>
					<g>
						<g>
							
								<rect x="2098.824" y="1487.181" transform="matrix(0.3729 -0.9279 0.9279 0.3729 -45.181 2908.7065)" width="60.984" height="1.195"/>
						</g>
					</g>
					<g>
						<g>
							
								<rect x="2072.739" y="1487.016" transform="matrix(0.3728 -0.9279 0.9279 0.3728 -51.333 2899.2793)" width="92.695" height="1.195"/>
						</g>
					</g>
					<g>
						<g>
							<path d="M2170.771,1523.661l-1.006-0.646c18.225-28.388,5.241-54.027,5.108-54.283l1.059-0.551
								C2176.068,1468.442,2189.365,1494.695,2170.771,1523.661z"/>
						</g>
					</g>
				</g>
				<g>
					<g>
						<path d="M2112.813,1723.81c-22.936,28.054-44.39,54.228-57.845,70.484c-13.805,16.678-29.026,25.688-45.24,26.778
							c-23.087,1.552-39.615-13.432-40.307-14.071l-480.93-394.281l0.777-1.347l481.719,393.826
							c0.216,0.196,16.56,14.985,38.61,13.489c15.523-1.053,30.17-9.772,43.533-25.916
							c41.714-50.397,160.342-196.16,161.537-197.625l1.853,1.507C2215.709,1597.646,2160.994,1664.876,2112.813,1723.81z"/>
					</g>
				</g>
				<g>
					<g>
						
							<rect x="1911.722" y="997.617" transform="matrix(0.633 -0.7742 0.7742 0.633 -209.6696 1913.155)" width="2.388" height="360.187"/>
					</g>
				</g>
				<g>
					<g>
						<g>
							
								<rect x="1614.733" y="1211.855" transform="matrix(0.6329 -0.7742 0.7742 0.6329 -349.7036 1698.0521)" width="2.389" height="11.943"/>
						</g>
					</g>
					<g>
						<g>
							<path d="M2102.024,1613.689l-1.512,1.849l-18.489-15.115l1.512-1.849L2102.024,1613.689z M2065.046,1583.458l-1.512,1.849
								l-18.489-15.116l1.512-1.849L2065.046,1583.458z M2028.067,1553.226l-1.512,1.849l-18.489-15.116l1.512-1.849
								L2028.067,1553.226z M1991.089,1522.995l-1.511,1.849l-18.489-15.116l1.511-1.849L1991.089,1522.995z M1954.111,1492.764
								l-1.512,1.849l-18.489-15.116l1.512-1.849L1954.111,1492.764z M1917.133,1462.533l-1.512,1.849l-18.489-15.116l1.512-1.849
								L1917.133,1462.533z M1880.154,1432.301l-1.512,1.849l-18.489-15.116l1.512-1.849L1880.154,1432.301z M1843.176,1402.069
								l-1.512,1.849l-18.488-15.115l1.512-1.849L1843.176,1402.069z M1806.198,1371.838l-1.512,1.849l-18.489-15.116l1.512-1.849
								L1806.198,1371.838z M1769.219,1341.606l-1.512,1.849l-18.489-15.115l1.512-1.849L1769.219,1341.606z M1732.241,1311.375
								l-1.512,1.849l-18.489-15.116l1.512-1.849L1732.241,1311.375z M1695.262,1281.144l-1.512,1.849l-18.489-15.115l1.512-1.849
								L1695.262,1281.144z M1658.285,1250.913l-1.512,1.849l-18.489-15.116l1.512-1.849L1658.285,1250.913z"/>
						</g>
					</g>
					<g>
						<g>
							
								<rect x="2123.186" y="1627.537" transform="matrix(0.6329 -0.7742 0.7742 0.6329 -484.8737 2244.3574)" width="2.389" height="11.943"/>
						</g>
					</g>
				</g>
			</g>
		</g>
		<path style="fill:#FE9F73;" d="M2549.798,1465.218l-108.88-55.495c0,0-159.874-97.911-201.139-118.751
			c-41.273-20.841-147.827-48.219-189.858-56.959c-12.354-2.566-26.925-8.313-41.345-15.163
			c-8.659-4.114-17.267-8.615-25.301-13.057c-0.218-0.127-0.429-0.244-0.64-0.361c-23.79-13.199-42.437-25.759-42.437-25.759
			c-4.927-2.26-9.484-3.843-13.662-4.83l-0.048-0.012c-13.283-3.108-22.809-0.156-28.927,6.573c-1.41,1.545-2.637,3.287-3.694,5.203
			c-1.731,3.14-2.988,6.743-3.792,10.685l-0.001,0.008c-4.52,22.058,5.076,54.677,25.359,76.307
			c20.876,22.282,71.975,52.114,114.687,74.89c3.06,1.64,6.088,3.238,9.048,4.8c32.438,17.034,57.993,29.075,57.993,29.075
			s4.458,16.821,18.22,42.138c7.49,13.77,17.738,30.049,31.517,47.501c4.986,6.32,10.444,12.791,16.404,19.355
			c8.561,9.44,18.165,19.054,28.914,28.664l-0.001,0.008c6.763,6.051,13.979,12.101,21.676,18.098
			c10.698,8.339,21.025,14.988,30.927,20.223c8.714,4.615,17.101,8.13,25.125,10.732c7.335,2.394,14.364,4.022,21.058,5.023
			c51.706,7.819,83.746-20.99,83.746-20.99l-17.71,70.217l-26.565,105.291l-0.284,1.127l1.235,0.598l218.376,106.446V1465.218z"/>
		<g>
			<path style="fill:#FE9F73;" d="M2286.505,1573.241c0,0,72.398,11.868,70.531,50.075c-1.866,38.208,64.818-56.555,61.925-58.237
				c-2.893-1.681-47.884-120.711-62.311-105.876c-14.427,14.836-66.203,57.309-60.33,77.17
				C2302.193,1556.235,2286.505,1573.241,2286.505,1573.241z"/>
		</g>
		<g>
			<g>
				<path style="fill:#FE9F73;" d="M1899.72,1749.858l16.93,13.88c0,0,33.79-8.553,59.446,19.577
					c25.656,28.13,15.73,51.301,15.73,51.301s-64.708,3.816-79.438-6.607C1897.657,1817.585,1875.897,1800.669,1899.72,1749.858z"/>
			</g>
			<g>
				<path style="fill:#F75553;" d="M2003.549,1835.3c0,0-41.584,3.8-78.248-3.049c0.077-2.823,1.181-7.048,2.042-9.899
					c2.645-8.753,7.215-12.419,14.961-12.999l52.019,1.832c0,0,7.454,0.801,9.75,11.329c0.883,4.047,0.651,8.066,0.082,11.376
					L2003.549,1835.3z"/>
			</g>
		</g>
		<g>
			<path style="fill:#ED7163;" d="M1982.634,1205.431c-0.56-0.689-53.659-32.516-53.659-32.516s-2.708,1.329-4.809,4.945
				c-2.102,3.616,20.857,14.056,25.196,16.578c4.339,2.522,29.047,14.946,29.047,14.946l4.868-3.598L1982.634,1205.431z"/>
		</g>
		<g>
			<g>
				<path style="fill:#FE9F73;" d="M1781.561,1648.569l24.573,18.57c0,0,49.139-17.349,87.644,17.404
					c38.505,34.753,28.108,67.483,28.108,67.483s-87.236,13.725-108.587,1.538
					C1791.947,1741.376,1755.972,1720.613,1781.561,1648.569z"/>
			</g>
			<g>
				<path style="fill:#F75553;" d="M1937.871,1751.403c0,0-55.883,10.648-106.503,6.206c-0.269-3.837,0.67-9.712,1.461-13.692
					c2.43-12.218,8.142-17.793,18.568-19.604l70.777-4.391c0,0,10.213,0.101,14.717,14.073c1.731,5.37,1.948,10.852,1.615,15.414
					L1937.871,1751.403z"/>
			</g>
		</g>
		<g>
			<g>
				<path style="fill:#FE9F73;" d="M1648.522,1544.57l21.666,18.017c0,0,53.997-13.758,90.843,22.75
					c36.846,36.507,24.936,68.718,24.936,68.718s-87.78,9.65-108.541-3.518S1619.607,1615.345,1648.522,1544.57z"/>
			</g>
			<g>
				<path style="fill:#F75553;" d="M1801.964,1654.177c0,0-56.319,8.035-106.677,1.242c-0.09-3.846,1.121-9.671,2.097-13.609
					c2.996-12.091,8.961-17.395,19.461-18.718l70.904-1.091c0,0,10.197,0.576,14.046,14.742c1.48,5.445,1.441,10.931,0.895,15.473
					L1801.964,1654.177z"/>
			</g>
		</g>
		<g>
			<path d="M2441.792,1408.295l-1.747,2.853c-1.599-0.979-160.29-98.109-201.024-118.678
				c-41.815-21.117-150.966-48.821-189.439-56.816c-11.241-2.335-25.281-7.481-41.728-15.297
				c-33.337-15.826-66.256-37.737-68.473-39.221c-4.65-2.12-9.1-3.688-13.229-4.663c-14.106-3.319-24.659,0.278-30.518,10.406
				c-11.823,20.434-1.806,61.23,21.02,85.587c38.105,40.673,179.795,107.721,181.222,108.393l0.705,0.332l0.199,0.753
				c0.054,0.203,5.586,20.632,22.604,49.802c15.702,26.915,44.677,66.992,93.537,105.066c48.542,37.833,89.092,39.915,114.561,35
				c27.604-5.327,43.987-19.789,44.15-19.934l2.236,2.489c-0.686,0.616-17.113,15.154-45.568,20.695
				c-16.689,3.25-34.038,2.678-51.562-1.698c-21.836-5.454-43.998-16.863-65.874-33.912
				c-49.337-38.446-78.591-78.945-94.445-106.148c-15.365-26.365-21.483-45.745-22.657-49.743
				c-12.031-5.697-143.979-68.703-181.55-108.806c-11.717-12.503-20.43-29.016-24.534-46.496
				c-4.009-17.071-2.895-32.765,3.06-43.054c4.653-8.043,14.361-16.652,34.183-11.987c4.38,1.034,9.082,2.694,13.976,4.932
				l0.239,0.134c0.337,0.226,34.039,22.856,68.155,39.052c16.207,7.701,29.992,12.762,40.972,15.042
				c38.6,8.022,148.171,35.847,190.268,57.105C2281.386,1310.114,2440.193,1407.315,2441.792,1408.295z"/>
		</g>
		<g>
			
				<rect x="2406.305" y="1680.739" transform="matrix(0.4316 -0.9021 0.9021 0.4316 -225.2849 3176.4185)" width="3.346" height="172.487"/>
		</g>
		<g>
			<path d="M2338.997,1724.762c-50.928,36.656-119.973,57.944-162.573,62.212c-37.721,3.78-62.165,0.568-62.407,0.535l0.449-3.316
				c0.239,0.033,24.331,3.189,61.625-0.548c42.169-4.225,110.523-25.303,160.951-61.598L2338.997,1724.762z"/>
		</g>
		<g>
			<path style="fill:#F75553;" d="M1958.17,1229.405c-0.006-0.003-65.652-40.036-72.82-50.794
				c-7.168-10.759,11.396-27.007,17.973-30.925s100.168,68.07,105.249,71.16c-0.042,0.305-2.808,12.618-11.811,20.555
				c-9.921,8.747-17.877,4.123-17.877,4.123L1958.17,1229.405z"/>
		</g>
		<g>
			<path d="M2009.968,1220.147c-0.882,3.301-4.145,13.497-12.1,20.509l-2.212-2.511c7.147-6.3,10.17-15.519,11.01-18.568
				c-1.99-1.398-6.287-4.586-13.229-9.743c-13.669-10.155-34.326-25.501-52.684-38.339c-28.904-20.21-35.295-22.375-36.7-22.296
				c-5.355,3.24-16.442,13.031-18.361,21.565c-0.608,2.681-0.264,4.945,1.051,6.919l-2.784,1.855c-1.826-2.74-2.34-5.941-1.53-9.514
				c2.381-10.44,15.517-21.083,20.039-23.776c1.595-0.95,4.264-2.54,38.934,21.62c18.701,13.033,39.962,28.828,54.03,39.28
				c7.246,5.382,12.968,9.634,14.01,10.268l0.938,0.569l-0.149,1.087C2010.227,1219.094,2010.146,1219.479,2009.968,1220.147z
				 M1903.974,1149.207L1903.974,1149.207L1903.974,1149.207z"/>
		</g>
		<g>
			<path d="M1920.804,1719.607l-3.193,1.002c-0.096-0.304-9.998-30.609-45.325-48.337c-35.245-17.689-72.835,0.187-73.21,0.369
				l-1.466-3.008c0.39-0.19,39.424-18.796,76.177-0.352C1910.438,1687.673,1920.398,1718.311,1920.804,1719.607z"/>
		</g>
		<g>
			<path d="M1939.531,1751.616l-3.32-0.424c2.097-16.416-2.776-26.394-14.487-29.657c-3.442-0.89-47.483,2.895-74.433,5.489
				l-0.321-3.331c11.785-1.135,70.823-6.727,75.652-5.382C1939.512,1723.017,1941.14,1739.02,1939.531,1751.616z"/>
		</g>
		<g>
			<path d="M1786.359,1621.497l-3.161,1.098c-0.137-0.394-14.07-39.507-47.396-53.155c-33.527-13.731-75.439-2.19-75.858-2.071
				l-0.908-3.221c1.758-0.495,43.451-11.967,78.033,2.196C1771.816,1580.573,1785.781,1619.833,1786.359,1621.497z"/>
		</g>
		<g>
			<path d="M1803.625,1654.375l-3.322-0.397c2.745-22.967-5.715-27.356-9.327-29.231c-0.293-0.152-0.561-0.291-0.796-0.422
				c-3.67-1.204-46.839-0.372-73.284,0.439l-0.102-3.344c21.402-0.656,71.55-1.974,74.967-0.045c0.22,0.125,0.475,0.256,0.757,0.403
				C1796.744,1623.971,1806.645,1629.108,1803.625,1654.375z M1790.114,1624.288c0.005,0.002,0.01,0.005,0.014,0.008
				C1790.123,1624.294,1790.119,1624.291,1790.114,1624.288z"/>
		</g>
		<g>
			<path d="M1993.792,1810.829l-3.299,0.556c-0.04-0.232-4.329-23.64-30.63-38.857c-26.33-15.234-54.784-3.309-55.069-3.187
				l-1.321-3.074c1.224-0.526,30.296-12.702,58.065,3.365C1989.263,1785.672,1993.62,1809.809,1993.792,1810.829z"/>
		</g>
		<g>
			<path d="M2006.438,1833.363c-0.564,2.111-1.534,3.008-1.875,3.268l-2.028-2.661c0,0-0.027,0.016-0.069,0.057
				c0.022-0.023,2.332-2.363-0.009-11.079c-2.29-8.528-7.574-9.937-8.319-10.096l-49.653-1.748l0.118-3.344l49.967,1.77
				c0.33,0.049,8.108,1.338,11.119,12.55C2007.175,1827.612,2007.028,1831.153,2006.438,1833.363z"/>
		</g>
		<g>
			<polygon points="1671.256,1561.3 1669.118,1563.872 1478.078,1404.308 1480.216,1401.736 			"/>
		</g>
		<g>
			<path d="M1506.067,1508.979c-1.749,0.152-42.924,3.418-51.743-23.312c-8.717-26.416,33.259-71.657,35.05-73.569l2.443,2.286
				c-0.427,0.454-42.414,45.695-34.315,70.234c7.998,24.243,47.875,21.063,48.276,21.028L1506.067,1508.979z"/>
		</g>
		<g>
			<path d="M1467.312,1447.303c-17.021,17.295-35.555,37.233-36.821,40.577c0.473,3.136,7.757,17.004,17.902,22.118l-1.505,2.988
				c-11.278-5.684-19.45-21.001-19.753-25.028c-0.091-1.167-0.221-2.932,19.007-23.441c9.269-9.887,18.692-19.466,18.786-19.562
				L1467.312,1447.303z"/>
		</g>
		<g>
			<g>
				<g>
					<g>
						<g>
							<path style="fill:#000100;" d="M2369.329,1490.778c0.551-0.245,0.962-0.765,1.038-1.407
								c2.541-21.59-13.2-52.44-13.871-53.743c-0.447-0.866-1.506-1.2-2.376-0.76c-0.866,0.446-1.207,1.51-0.76,2.376
								c0.16,0.31,15.918,31.198,13.504,51.714c-0.114,0.968,0.578,1.845,1.546,1.958
								C2368.735,1490.955,2369.05,1490.902,2369.329,1490.778z"/>
						</g>
					</g>
				</g>
			</g>
		</g>
		<g>
			<g>
				<g>
					<g>
						<g>
							<path style="fill:#000100;" d="M2353.943,1509.673c0.431-0.191,0.784-0.553,0.951-1.033
								c7.139-20.535-1.576-54.054-1.95-55.47c-0.249-0.943-1.214-1.504-2.156-1.255c-0.946,0.246-1.504,1.215-1.255,2.156
								c0.089,0.336,8.813,33.896,2.028,53.409c-0.319,0.921,0.167,1.927,1.088,2.246
								C2353.089,1509.881,2353.548,1509.849,2353.943,1509.673z"/>
						</g>
					</g>
				</g>
			</g>
		</g>
	</g>
</g>
</svg>
